<?xml version="1.0" encoding="utf-8"?>
<!DOCTYPE svg PUBLIC "-//W3C//DTD SVG 1.0//EN" "http://www.w3.org/TR/2001/REC-SVG-20010904/DTD/svg10.dtd">
<svg version="1.0" xmlns="http://www.w3.org/2000/svg" width="1024px" height="1024px" viewBox="0 0 1024 1024" preserveAspectRatio="xMidYMid meet">
 <g fill="#010100">
  <path d="M0 512 l0 -512 512 0 512 0 0 512 0 512 -512 0 -512 0 0 -512z m553.55 267.80 c7.05 -1.35 11 -3 16.85 -6.95 4.35 -2.95 10.60 -9.45 13.70 -14.20 5.30 -8.10 12.15 -21.60 19.25 -37.90 0.95 -2.20 2.90 -6.60 4.25 -9.75 1.40 -3.15 3.05 -6.95 3.70 -8.40 0.65 -1.45 1.20 -2.70 1.20 -2.80 0 -0.10 0.90 -2.15 2 -4.50 1.10 -2.35 2 -4.40 2 -4.55 0 -0.10 0.70 -1.70 1.50 -3.50 0.85 -1.80 1.50 -3.40 1.50 -3.50 0 -0.10 0.70 -1.70 1.50 -3.50 0.85 -1.80 1.50 -3.40 1.50 -3.50 0 -0.10 0.70 -1.70 1.50 -3.50 0.85 -1.80 1.50 -3.40 1.50 -3.50 0 -0.10 0.55 -1.40 1.20 -2.85 0.70 -1.50 1.70 -3.90 2.30 -5.40 0.60 -1.50 1.60 -3.90 2.30 -5.40 0.65 -1.45 1.20 -2.75 1.20 -2.85 0 -0.15 0.50 -1.35 1.05 -2.65 1.80 -4.05 2.30 -5.25 3.95 -9.35 0.90 -2.20 2 -4.90 2.50 -6 0.95 -2.05 3.25 -7.75 8.85 -21.50 1.80 -4.40 3.55 -8.65 3.90 -9.50 1.10 -2.60 6.30 -15.85 7.75 -19.80 l1.40 -3.80 -20.60 -0.10 -20.55 -0.10 -1.65 4.40 c-0.95 2.40 -1.90 4.85 -2.10 5.40 -0.25 0.55 -0.80 2 -1.20 3.25 -0.40 1.25 -1.55 4.40 -2.55 7 -1 2.60 -2.50 6.55 -3.35 8.75 -0.80 2.20 -1.70 4.45 -1.90 5 -0.20 0.55 -1.30 3.35 -2.40 6.25 -5.60 14.65 -18.60 47.05 -21.65 53.80 -0.50 1.10 -1.35 3.15 -1.90 4.50 -0.55 1.35 -1.90 4.50 -3 6.95 l-2 4.50 -2.35 0 c-2.55 0 -2.50 0.05 -4.40 -4.25 -4.40 -10.15 -6.60 -15.15 -7.90 -18 -0.80 -1.80 -2.50 -5.60 -3.75 -8.50 -1.25 -2.90 -2.40 -5.45 -2.60 -5.75 -0.20 -0.25 -0.95 -1.95 -1.65 -3.75 -0.75 -1.80 -2.25 -5.25 -3.35 -7.65 -1.15 -2.45 -2.05 -4.50 -2.05 -4.55 0 -0.10 -1 -2.40 -2.30 -5.10 -1.25 -2.75 -2.45 -5.40 -2.70 -5.95 -0.20 -0.55 -0.95 -2.25 -1.65 -3.75 -0.70 -1.50 -1.60 -3.55 -2 -4.50 -0.45 -0.95 -1.70 -3.75 -2.80 -6.15 -1.15 -2.45 -2.05 -4.50 -2.05 -4.60 0 -0.10 -1 -2.25 -2.20 -4.85 -1.20 -2.55 -2.65 -5.75 -3.30 -7.15 -0.60 -1.35 -1.85 -4.15 -2.80 -6.15 -0.95 -1.95 -2.30 -4.85 -3 -6.40 l-1.30 -2.80 -20.90 0.15 c-11.50 0.10 -21.05 0.35 -21.20 0.50 -0.20 0.15 1.35 3.75 3.35 8 2.05 4.25 5.05 10.50 6.70 13.95 1.65 3.45 3.55 7.40 4.15 8.75 0.60 1.40 3.20 6.80 5.75 12 2.55 5.25 5.40 11.20 6.40 13.25 0.95 2.05 3.90 8.25 6.60 13.75 2.65 5.50 6.45 13.25 8.35 17.25 1.95 4 5.70 11.75 8.40 17.25 2.70 5.50 6.25 12.80 7.90 16.25 2.85 5.95 7.95 16.55 12.15 25.30 2.50 5.20 2.60 7.90 0.40 12.45 -1.75 3.70 -4.80 7.30 -7.45 9 -6.10 3.85 -15.75 4.35 -29.35 1.45 -1.55 -0.30 -1.65 -0.25 -1.65 1.15 0 0.80 -0.20 2.70 -0.45 4.20 -0.30 1.50 -0.75 4.30 -1 6.20 -1.25 8.20 -2.15 13.50 -2.35 13.80 -0.30 0.50 9 2.90 15.30 3.95 1.80 0.30 4.40 0.75 5.75 0.95 4.30 0.75 19.60 0.65 23.80 -0.15z m-308.05 -1 c4 -0.40 7.80 -0.85 8.50 -0.95 0.70 -0.15 2.60 -0.55 4.25 -0.85 17.80 -3.65 32.65 -11.85 41.45 -23 8.25 -10.35 11.65 -18.45 13.35 -31.65 0.50 -3.95 0.50 -5.95 0 -9.90 -1.55 -12.65 -3.80 -19.15 -9.50 -27.90 -8.05 -12.25 -21.50 -20.60 -37.80 -23.45 -8.10 -1.45 -30.90 -2.60 -50.60 -2.60 l-8.65 0 0 -23 0 -23 46.50 0 46.50 0 0 -16 0 -16 -64.85 0 c-35.70 0 -65.40 0.15 -66 0.30 l-1.15 0.30 0 98.70 0 98.70 8.65 0.05 c4.70 0.05 11.30 0.25 14.60 0.45 11.75 0.65 47.05 0.55 54.75 -0.20z m144.55 -37.40 c0.05 -20.45 0 -57.80 -0.05 -83 l-0.10 -45.90 35.80 0 35.80 0 -0.10 -15.85 -0.15 -15.90 -54.85 -0.15 -54.90 -0.10 0 99 0 99 19.25 0 19.25 0 0.05 -37.10z m339.45 -45.90 l0 -83 44 0 44 0 0 83 0 83 19.50 0 19.50 0 0 -99 0 -99 -83.50 0 -83.50 0 0 99 0 99 20 0 20 0 0 -83z m-341.70 -156.75 c2.60 -0.75 4.50 -1.95 7.90 -5.10 8.45 -7.70 17.50 -14.45 31.35 -23.30 3.65 -2.30 13.50 -7.60 19.20 -10.35 6.90 -3.25 12.80 -6 13 -6 0.10 0 1.80 -0.75 3.85 -1.65 2 -0.95 4.90 -2.15 6.40 -2.70 1.50 -0.60 3.75 -1.45 5 -1.90 8.65 -3.25 19.65 -6.55 31.25 -9.25 7.85 -1.85 8.50 -1.95 17.65 -3.45 2.65 -0.45 7.30 -1.10 12.50 -1.80 10 -1.30 19 -1.75 34.50 -1.75 13.25 0 17.50 -0.15 18.75 -0.70 2.15 -0.85 4.65 -3.80 5.30 -6.15 0.35 -1.15 0.55 -8.15 0.55 -17.55 l0 -15.65 -7.40 6.65 c-4.05 3.65 -8.45 7.60 -9.75 8.70 -1.70 1.50 -2.35 2.45 -2.35 3.40 l0 1.30 -7.85 0 c-4.35 0 -10.70 0.20 -14.15 0.50 -13.55 1.10 -18.40 1.55 -21.50 2 -1.80 0.25 -5.25 0.70 -7.75 1 -8.95 1.10 -19.45 3.05 -27.25 5 -0.95 0.25 -2.85 0.70 -4.25 1 -1.35 0.35 -3.05 0.80 -3.75 1 -0.70 0.20 -2.95 0.90 -5 1.50 -5.10 1.50 -15.35 5.05 -20.25 7 -4.35 1.70 -5.55 2.25 -9.75 4.10 -1.50 0.70 -4.20 1.90 -6 2.70 -4.45 1.95 -14.05 6.95 -17.95 9.25 -1.70 1.10 -3.25 1.95 -3.40 1.95 -0.35 0 -10.50 6.45 -14.90 9.45 -4.60 3.15 -6.70 4.70 -11.30 8.40 -2.40 1.95 -3.75 2.65 -4.90 2.65 l-1.55 0 0 -121.40 0 -121.45 2.15 -1.90 c1.15 -1.10 5.35 -5 9.35 -8.75 18.45 -17.30 29.15 -25.40 48 -36.15 2.20 -1.25 15.50 -7.90 18.50 -9.25 6.60 -2.95 20.35 -8.15 26.90 -10.15 1.70 -0.50 4.60 -1.40 6.50 -2 1.85 -0.55 5.60 -1.55 8.35 -2.25 2.75 -0.70 5.80 -1.45 6.75 -1.70 1.85 -0.50 10.10 -2.15 15.25 -3.05 1.65 -0.25 4.15 -0.70 5.50 -0.95 7.05 -1.25 21.70 -2.50 28.90 -2.50 l5.85 0 0 23.65 -0.05 23.60 -4.35 3.95 c-4 3.65 -13.50 12.60 -24.10 22.60 -2.35 2.20 -5.35 5.05 -6.75 6.25 -4.95 4.50 -16.55 15.40 -18.75 17.65 l-2.20 2.30 -26.95 0 c-19.90 0 -27.50 0.15 -29.05 0.60 -2.65 0.80 -5.85 4.05 -6.75 6.80 -0.60 1.80 -0.60 2.45 -0.10 4 1 2.85 2.70 4.75 5.35 6.10 2.35 1.20 2.80 1.25 13.95 1.40 6.35 0.05 19.50 -0.05 29.25 -0.25 l17.75 -0.40 2.35 -1.40 c2.35 -1.35 8.30 -6.25 13.40 -11.05 1.50 -1.40 3.65 -3.30 4.75 -4.25 1.95 -1.65 8.60 -7.65 14.25 -12.85 1.50 -1.35 3.85 -3.50 5.25 -4.75 4.15 -3.70 17.15 -15.85 23.85 -22.25 l6.40 -6.10 87.85 0.25 c51.10 0.15 94.75 0.05 104.30 -0.25 l16.40 -0.45 2.85 2.70 c3.60 3.50 8.35 6.30 13.20 7.85 8.65 2.75 15.80 2.05 24.35 -2.25 11.10 -5.65 19.10 -18.15 19.05 -29.85 -0.05 -7.80 -3.65 -16.50 -9.20 -22.25 -6.05 -6.25 -11.95 -9.35 -20.95 -10.90 -8.70 -1.45 -21.10 3.55 -28.05 11.45 -5.10 5.80 -8.80 14.70 -8.80 21.35 l0 2.60 -25.10 0.30 c-32.35 0.45 -110.35 0.45 -145.50 0 l-27.40 -0.30 0 -24.45 c0 -23.50 -0.05 -24.50 -1 -26.55 -2.15 -4.60 -5.50 -5.85 -15.50 -5.85 -18 0 -38.40 2.10 -56.75 5.80 -2.20 0.45 -5 1 -6.25 1.25 -1.20 0.25 -3.60 0.80 -5.25 1.25 -1.65 0.40 -3.80 0.95 -4.75 1.20 -3.70 0.95 -15.30 4.45 -16.75 5.05 -0.55 0.20 -2 0.75 -3.25 1.15 -10.65 3.40 -25.85 10.25 -38.40 17.25 -12.90 7.15 -29.20 18.45 -39.35 27.25 -4.40 3.80 -18.85 18.15 -21.50 21.30 -1.75 2.15 -2.25 2.45 -4 2.45 -1.90 0.05 -2.20 -0.15 -5.20 -3.70 -19.05 -22.65 -55.40 -47.30 -90.50 -61.35 -11.50 -4.55 -26.60 -9.20 -38.80 -11.85 -16.25 -3.55 -30.05 -5.40 -49.50 -6.55 -19.30 -1.20 -23.95 -0.40 -27.30 4.45 l-1.20 1.75 0.20 134.50 c0.05 74 0.30 139.15 0.55 144.80 0.45 12.50 1 14.15 5.50 16.95 1.70 1 2.35 1.05 16.20 1.05 7.95 0 16.50 0.25 19 0.50 15.30 1.70 18.25 2.10 28.55 3.95 4.75 0.85 13.30 2.55 15.50 3.05 6.25 1.45 15.15 3.65 16.25 4 0.70 0.20 2.25 0.65 3.50 1 5.75 1.60 20.55 6.65 24.25 8.25 0.85 0.40 2.70 1.15 4.20 1.75 6.10 2.35 17.95 8.15 27.40 13.35 15.05 8.25 26.75 16.30 37.05 25.55 6.25 5.65 6.80 6 10.35 6.85 3.45 0.85 5.15 0.85 8.05 0z m417.20 -63.95 c4.80 -1.20 8.55 -2.70 11.95 -4.90 9.70 -6.30 15.60 -16.70 15.55 -27.55 -0.05 -11.95 -6.80 -23.10 -17.65 -29.10 -4.70 -2.60 -9.60 -3.85 -15.35 -3.90 -7.55 -0.05 -14.10 2.15 -20.45 6.95 -4.90 3.70 -10.15 11.10 -11.60 16.35 l-0.50 1.85 -10.10 0 -10.15 0 -1.80 -2.35 c-3.75 -4.90 -53.20 -52.95 -56.70 -55.15 l-2.85 -1.75 -43.80 0 -43.80 0 -2.40 1.40 c-2.05 1.20 -12.15 9.55 -14.35 11.85 -0.40 0.40 -2.45 2.25 -4.50 4 -2.05 1.80 -3.85 3.35 -4 3.50 -0.15 0.15 -1.95 1.70 -4 3.50 -2.05 1.80 -3.85 3.35 -4 3.50 -0.15 0.15 -1.95 1.70 -4 3.50 -2.05 1.80 -4.65 4.10 -5.75 5.10 -1.10 1 -2.85 2.50 -3.85 3.30 l-1.85 1.45 -12.65 0.30 c-6.95 0.20 -25.90 0.50 -42.15 0.65 -28 0.30 -29.60 0.40 -31.65 1.35 -2.60 1.20 -4.85 3.80 -5.50 6.45 -0.75 2.85 0.40 5.90 3.15 8.25 3.75 3.35 3.50 3.35 35.70 2.95 15.85 -0.20 35.10 -0.55 42.80 -0.70 13.10 -0.35 14.15 -0.40 16.05 -1.45 2.70 -1.45 10.10 -7.60 26.20 -21.85 0.95 -0.85 3.65 -3.25 6 -5.30 2.35 -2.05 4.35 -3.85 4.50 -4 2.50 -2.50 8.70 -7.60 9.75 -8 0.85 -0.30 15.35 -0.50 41.05 -0.50 l39.70 0 27.40 27.20 c15.05 14.95 28.05 27.75 28.85 28.40 3.15 2.60 3.25 2.65 16.70 2.90 l12.75 0.25 1.65 3.25 c3.35 6.65 8.65 11.95 15.15 15.20 3.05 1.50 4.75 2.15 9 3.25 2.60 0.70 8.40 0.60 11.50 -0.15z m82.50 -87 c12.25 -2.60 21.90 -11.05 25.90 -22.55 2.30 -6.75 2.60 -10.95 1.15 -16.75 -3.85 -15.25 -15.30 -25.15 -31.05 -26.80 -7.40 -0.80 -17.85 3.40 -24.35 9.75 -3.70 3.65 -8.65 11.40 -8.65 13.60 0 0.45 -12.80 0.50 -49.50 0.35 l-49.50 -0.25 -12.90 -12.70 c-7.05 -7 -17.15 -17 -22.45 -22.25 -7.35 -7.30 -10.35 -9.90 -12.50 -11 l-2.90 -1.45 -51.45 -0.15 c-56.35 -0.15 -53.55 -0.25 -58.15 2.80 -1.15 0.75 -2.95 2.15 -4 3.10 -1.05 0.95 -5.40 4.90 -9.65 8.75 -4.25 3.85 -9.20 8.35 -11 10.05 -3.15 2.90 -21.45 19.25 -29.70 26.50 l-4.05 3.55 -32.25 -0.40 c-37.65 -0.45 -37.25 -0.50 -41.15 4.05 -4.50 5.25 -1.70 12.25 5.70 14.20 2.90 0.75 6.50 0.85 37.45 0.70 32.25 -0.15 34.35 -0.20 35.95 -1.10 2.20 -1.20 5.35 -3.45 7.55 -5.45 0.95 -0.90 3.45 -3.05 5.50 -4.85 2.05 -1.80 3.85 -3.35 4 -3.50 0.40 -0.40 18.10 -16.35 22 -19.75 1.85 -1.65 6.05 -5.35 9.30 -8.25 7.40 -6.55 10.45 -9.10 12.70 -10.45 1.75 -1.05 1.75 -1.05 46.85 -1.05 31.70 0 45.90 0.15 47.75 0.55 4.90 1.05 5.10 1.25 34.90 30.75 13.55 13.40 14.95 14.65 17.50 15.50 2.60 0.90 5.75 0.95 53.10 1.10 l50.35 0.15 2.30 4.75 c6.40 13.30 21.80 21.35 35.25 18.50z"/>
  <path d="M214.75 746.95 c-3.85 -0.15 -7.30 -0.35 -7.60 -0.40 -0.50 -0.05 -0.65 -6.05 -0.65 -28.25 0 -15.55 0.20 -28.35 0.40 -28.50 0.20 -0.10 9.40 -0.30 20.35 -0.35 22.05 -0.20 23.50 -0.05 30.35 2.85 7.95 3.30 12.20 7.95 14.20 15.45 0.80 2.85 0.95 15.75 0.25 18.05 -0.25 0.80 -0.75 2.45 -1.10 3.70 -1.05 3.45 -2.90 6.50 -5.60 9.15 -7.85 7.70 -20.85 9.80 -50.60 8.30z"/>
  <path d="M368 506.95 c-2.15 -1.85 -14.30 -10.40 -18.25 -12.80 -12.80 -7.80 -27.30 -15.10 -44 -22.10 -2.95 -1.25 -3.70 -1.55 -5.70 -2.30 -13.10 -4.90 -31.40 -9.95 -46.05 -12.70 -17.55 -3.30 -39.35 -5.55 -53.85 -5.55 l-7.65 0 0 -132 0 -132 4.65 0 c7.65 0.05 24.15 1.75 33.85 3.50 10.85 2 19.45 3.95 29.50 6.70 5.15 1.40 22.85 7.55 26.75 9.30 1.10 0.50 3.70 1.60 5.75 2.50 12.70 5.50 26.45 13.15 40.05 22.30 12.90 8.65 17.80 12.75 31.80 26.50 l8.60 8.45 0.15 120.90 0.15 120.85 -2 0 c-1.50 -0.05 -2.45 -0.45 -3.75 -1.55z"/>
  <path d="M823.45 234.55 c-3.35 -0.65 -5.95 -2.75 -8 -6.30 -0.90 -1.65 -1.10 -2.80 -1.15 -6.75 -0.05 -6.90 1.65 -10.45 6.20 -12.75 3.35 -1.70 10.80 -1.80 14.25 -0.20 5 2.35 6.75 5.60 6.75 12.50 0 5.65 -0.55 7.35 -3.50 10.30 -3.10 3.20 -8.45 4.35 -14.55 3.20z"/>
  <path d="M794.95 455.55 c-3.60 -0.75 -7.20 -3.85 -8.70 -7.40 -1 -2.40 -1 -9.95 0 -12.35 1.10 -2.55 4.35 -5.60 7.10 -6.50 3.05 -1.05 9.45 -1.05 11.90 0 5.90 2.45 8.75 7.65 8 14.55 -0.40 3.85 -1.20 5.65 -3.45 8.05 -2.45 2.65 -4.95 3.70 -9.25 3.90 -2.10 0.05 -4.60 0 -5.60 -0.25z"/>
  <path d="M874.45 367.15 c-4.95 -2.55 -7.05 -7.40 -6.25 -14.70 0.50 -4.95 2.95 -8.45 7.15 -10.20 2.65 -1.10 10.85 -1 13.40 0.20 4.80 2.20 6.70 5.75 6.75 12.45 0 3.95 -0.20 5 -1.25 7.05 -2.40 4.80 -5.75 6.55 -12.45 6.55 -4.05 0 -4.95 -0.15 -7.35 -1.35z"/>
 </g>
 <g fill="#fec300">
  <path d="M528.25 781.45 c-1.35 -0.20 -3.95 -0.65 -5.75 -0.95 -4 -0.65 -6.60 -1.25 -11.70 -2.60 l-3.90 -1.05 0.25 -2.05 c0.15 -1.15 0.60 -4.20 1.05 -6.80 0.45 -2.60 1.05 -6.30 1.35 -8.25 0.25 -1.90 0.70 -4.70 1 -6.20 0.25 -1.50 0.45 -3.35 0.45 -4.10 0 -0.75 0.20 -1.50 0.45 -1.65 0.25 -0.20 2.80 0.15 5.65 0.75 2.80 0.60 7.65 1.20 10.70 1.30 4.80 0.25 6.05 0.10 8.95 -0.80 4.20 -1.35 6.55 -2.85 9.15 -5.80 2.20 -2.55 5.10 -8.05 5.10 -9.80 0 -0.60 -0.90 -2.95 -1.95 -5.15 -4.20 -8.75 -9.30 -19.35 -12.15 -25.30 -1.65 -3.45 -5.20 -10.75 -7.90 -16.25 -2.70 -5.50 -6.45 -13.25 -8.40 -17.25 -1.90 -4 -5.70 -11.75 -8.35 -17.25 -2.70 -5.50 -5.65 -11.70 -6.60 -13.75 -1 -2.05 -3.85 -8 -6.40 -13.25 -2.55 -5.20 -5.15 -10.60 -5.75 -12 -0.60 -1.35 -2.60 -5.55 -4.40 -9.25 -1.75 -3.70 -4.45 -9.35 -5.95 -12.50 -1.50 -3.15 -3.50 -7.20 -4.40 -9 l-1.65 -3.30 23.65 -0.15 23.70 -0.15 1.25 2.80 c0.70 1.55 2.05 4.45 3 6.40 0.95 2 2.20 4.80 2.80 6.15 0.65 1.40 2.10 4.60 3.30 7.15 1.20 2.60 2.20 4.75 2.20 4.85 0 0.10 0.90 2.15 2.05 4.60 1.10 2.40 2.35 5.20 2.80 6.15 0.40 0.95 1.30 3 2 4.50 0.70 1.50 1.45 3.20 1.65 3.75 0.25 0.55 1.45 3.20 2.70 5.95 1.30 2.70 2.30 5 2.30 5.10 0 0.05 0.90 2.10 2.05 4.55 1.10 2.40 2.60 5.85 3.35 7.65 0.70 1.80 1.45 3.50 1.65 3.75 0.20 0.30 1.35 2.85 2.60 5.75 1.25 2.90 2.95 6.70 3.75 8.50 1.30 2.85 3.50 7.85 7.90 18 1.70 3.90 1.95 4.25 2.90 4.25 0.80 0 2.90 -4.15 5.85 -11.45 0.55 -1.35 1.40 -3.40 1.90 -4.50 3.05 -6.75 16.05 -39.15 21.65 -53.80 1.10 -2.90 2.20 -5.70 2.40 -6.25 0.20 -0.55 1.10 -2.80 1.90 -5 0.85 -2.20 2.35 -6.15 3.35 -8.75 1 -2.60 2.15 -5.75 2.55 -7 0.40 -1.25 0.95 -2.70 1.20 -3.25 0.20 -0.55 1.15 -2.95 2.10 -5.40 l1.65 -4.35 22.65 0 c12.40 0.05 22.60 0.20 22.60 0.40 0 0.20 -0.55 1.70 -1.20 3.35 -0.65 1.65 -2.85 7.15 -4.80 12.25 -2 5.10 -3.90 9.95 -4.25 10.75 -0.35 0.85 -2.10 5.10 -3.90 9.50 -5.60 13.75 -7.90 19.45 -8.85 21.50 -0.50 1.10 -1.60 3.80 -2.50 6 -1.65 4.10 -2.15 5.30 -3.95 9.35 -0.55 1.30 -1.05 2.50 -1.05 2.65 0 0.10 -0.55 1.40 -1.20 2.85 -0.70 1.50 -1.70 3.90 -2.30 5.40 -0.60 1.50 -1.60 3.90 -2.30 5.40 -0.65 1.45 -1.20 2.75 -1.20 2.85 0 0.10 -0.65 1.70 -1.50 3.50 -0.80 1.80 -1.50 3.40 -1.50 3.50 0 0.10 -0.65 1.70 -1.50 3.50 -0.80 1.80 -1.50 3.40 -1.50 3.50 0 0.10 -0.65 1.70 -1.50 3.50 -0.80 1.80 -1.50 3.40 -1.50 3.50 0 0.15 -0.90 2.20 -2 4.55 -1.10 2.35 -2 4.40 -2 4.50 0 0.10 -0.55 1.35 -1.20 2.80 -0.65 1.45 -2.30 5.25 -3.70 8.40 -1.35 3.15 -3.30 7.55 -4.25 9.75 -7.10 16.30 -13.95 29.80 -19.25 37.90 -4.60 7 -12.85 14.50 -19.60 17.70 -6.75 3.25 -12.35 4.15 -25 4.10 -5.65 -0.05 -11.35 -0.25 -12.75 -0.50z"/>
  <path d="M193.75 780.65 c-0.80 -0.10 -7.40 -0.35 -14.65 -0.55 -7.20 -0.20 -13.10 -0.50 -13.10 -0.70 0 -0.25 0 -45.40 0 -100.40 l0 -100 67.50 0 67.50 0 0 16.70 c0 9.20 -0.15 17.05 -0.30 17.50 -0.30 0.70 -4.85 0.80 -46.50 0.80 l-46.20 0 0 21.50 0 21.50 8.65 0 c19.70 0 42.50 1.15 50.60 2.60 20.45 3.60 35.85 15.55 43.30 33.65 2.35 5.70 4.45 17.10 4.45 23.95 0 7.20 -2.05 17.45 -4.60 23.30 -2.65 6 -4.65 9.30 -9.20 15 -8.80 11.15 -23.65 19.40 -41.45 23 -1.65 0.30 -3.45 0.70 -4 0.80 -0.55 0.10 -4.45 0.55 -8.70 0.95 -5.80 0.60 -13.20 0.75 -29.75 0.65 -12.15 -0.05 -22.70 -0.15 -23.55 -0.25z m49.75 -35.40 c7.40 -1 10.15 -1.80 14.80 -4.15 5.35 -2.70 9.50 -7.60 11.15 -13.10 0.35 -1.25 0.85 -2.90 1.10 -3.70 0.70 -2.20 0.50 -12.25 -0.25 -15.05 -2 -7.50 -6.25 -12.15 -14.20 -15.45 -6.70 -2.80 -8.45 -3 -28.80 -2.85 -10.20 0.05 -18.70 0.25 -18.90 0.35 -0.20 0.15 -0.40 12.30 -0.40 27 0 21 0.15 26.70 0.65 26.75 9.55 0.95 28.80 1.05 34.85 0.20z"/>
  <path d="M350 679.50 l0 -100.50 56.40 0.10 56.35 0.15 0.15 17.40 0.10 17.35 -35.65 0 -35.70 0 0.05 83 0.05 83 -20.85 0 -20.90 0 0 -100.50z"/>
  <path d="M688 779.75 c0 -0.15 0 -45.15 0 -100 0 -54.85 0 -100 0 -100.25 0 -0.35 28.40 -0.45 85 -0.40 l85 0.15 0 100.25 0 100.25 -21 0.15 -21 0.10 0 -83 0 -83 -33.35 -0.10 c-18.40 -0.10 -37.50 -0.10 -42.50 0 l-9.15 0.10 0 83 0 83 -21.50 0 c-11.80 0 -21.50 -0.10 -21.50 -0.25z"/>
  <path d="M378.25 540.25 c-3.55 -0.85 -4.10 -1.20 -10.35 -6.85 -10.30 -9.25 -22 -17.30 -37.05 -25.55 -9.45 -5.20 -21.30 -11 -27.40 -13.35 -1.50 -0.60 -3.35 -1.35 -4.20 -1.75 -3.70 -1.60 -18.50 -6.65 -24.25 -8.25 -1.25 -0.35 -2.80 -0.80 -3.50 -1 -1.10 -0.35 -10 -2.55 -16.25 -4 -2.20 -0.50 -10.75 -2.20 -15.50 -3.05 -10.30 -1.85 -13.25 -2.25 -28.55 -3.95 -2.50 -0.25 -11.05 -0.50 -19 -0.50 -13.85 0 -14.50 -0.05 -16.20 -1.05 -4.50 -2.80 -5.05 -4.45 -5.50 -16.95 -0.25 -5.65 -0.45 -71.45 -0.55 -146.30 l-0.20 -136 1.20 -1.75 c1.60 -2.35 3.20 -3.45 6.20 -4.25 6.30 -1.65 35.60 -0.15 54.85 2.85 14.45 2.30 23.55 4.35 37.65 8.50 29.55 8.70 59.60 24.50 86.15 45.25 9.55 7.45 17.80 15.30 24.25 22.95 1.75 2.05 3.40 3.75 3.70 3.70 0.25 0 1.40 -1.10 2.50 -2.45 2.65 -3.15 17.10 -17.50 21.50 -21.30 3.60 -3.10 14.95 -11.75 20.75 -15.80 12.45 -8.65 31.25 -18.75 46 -24.60 5.35 -2.15 8.10 -3.20 11 -4.10 1.25 -0.40 2.70 -0.95 3.25 -1.15 1.45 -0.60 13.05 -4.10 16.75 -5.05 0.95 -0.25 3.10 -0.80 4.75 -1.20 1.65 -0.45 4.05 -1 5.25 -1.25 1.25 -0.25 4.05 -0.80 6.25 -1.25 6.15 -1.25 13.30 -2.45 19.25 -3.25 17.60 -2.40 45.50 -3.40 49.90 -1.85 3.05 1.10 4.95 2.70 6.10 5.15 1 2.10 1 3 1 26.50 0 13.35 0.05 24.40 0.20 24.50 0.40 0.45 128.80 0.75 160.95 0.40 l33.85 -0.35 0 -2.65 c0 -4.95 2.60 -12.75 5.85 -17.55 3.10 -4.55 8.25 -9.20 12.55 -11.40 5.95 -3 13.30 -4.60 18.80 -4.15 9.50 0.85 17.05 4.40 23.60 11.20 6 6.15 9.15 14.40 9.20 23.75 0 10.05 -3.70 18.65 -11.05 25.60 -7.40 7 -16.35 10.20 -26.45 9.60 -8.50 -0.50 -16.25 -3.80 -22.05 -9.40 l-2.80 -2.65 -14.45 0.40 c-7.95 0.25 -54.25 0.30 -102.85 0.20 l-88.40 -0.25 -6.35 6.10 c-6.70 6.45 -19.70 18.55 -23.85 22.25 -1.40 1.25 -3.75 3.40 -5.25 4.75 -5.65 5.20 -12.30 11.20 -14.25 12.85 -1.10 0.95 -3.25 2.85 -4.75 4.25 -8.40 7.85 -13.70 11.80 -16.75 12.40 -2.95 0.60 -58.80 0.80 -60.70 0.25 -2.90 -0.85 -5.65 -3.05 -6.85 -5.45 -3.05 -5.90 0.10 -13.60 6.25 -15.45 1.35 -0.40 10.10 -0.55 28.90 -0.55 l26.95 0 2.20 -2.30 c2.20 -2.25 13.80 -13.15 18.75 -17.65 1.40 -1.20 4.40 -4.05 6.75 -6.25 10.60 -10 20.10 -18.95 24.10 -22.60 l4.35 -3.95 0.05 -22.10 0 -22.15 -4.35 0 c-5.85 0 -21.05 1.40 -27.40 2.50 -1.35 0.25 -3.85 0.70 -5.50 0.95 -5.15 0.90 -13.40 2.55 -15.25 3.05 -0.95 0.25 -4 1 -6.75 1.70 -2.75 0.70 -6.50 1.70 -8.35 2.25 -1.90 0.60 -4.80 1.50 -6.50 2 -6.55 2 -20.30 7.20 -26.90 10.15 -3 1.35 -16.30 8 -18.50 9.25 -18.85 10.75 -29.55 18.85 -48 36.15 -4 3.75 -8.20 7.65 -9.35 8.75 l-2.15 1.90 0 119.95 0 119.95 1.65 -1.30 c3.70 -3 9.35 -7.25 13.10 -9.80 4.35 -3 14.55 -9.45 14.90 -9.45 0.15 0 1.70 -0.85 3.40 -1.95 3.90 -2.30 13.50 -7.30 17.95 -9.25 1.80 -0.80 4.50 -2 6 -2.70 4.20 -1.85 5.40 -2.40 9.75 -4.10 4.90 -1.95 15.15 -5.50 20.25 -7 2.05 -0.60 4.30 -1.30 5 -1.50 0.70 -0.20 2.40 -0.65 3.75 -1 1.40 -0.30 3.30 -0.75 4.25 -1 7.80 -1.95 18.30 -3.90 27.25 -5 2.50 -0.30 5.95 -0.75 7.75 -1 3.10 -0.45 7.95 -0.90 21.50 -2 3.45 -0.30 9.80 -0.50 14.10 -0.50 l7.85 0 0.15 -1.40 c0.10 -1.10 2.10 -3.15 9.15 -9.40 4.95 -4.45 9.75 -8.75 10.70 -9.65 0.95 -0.90 1.90 -1.65 2.15 -1.70 0.60 -0.15 0.50 35.95 -0.15 38.25 -0.60 2.35 -3.15 5.35 -5.30 6.20 -1.25 0.55 -5.50 0.70 -18.75 0.70 -15.50 0 -24.50 0.45 -34.50 1.75 -5.20 0.70 -9.85 1.35 -12.50 1.80 -9.15 1.50 -9.80 1.60 -17.65 3.45 -11.60 2.70 -22.60 6 -31.25 9.25 -1.25 0.45 -3.50 1.30 -5 1.90 -1.50 0.55 -4.40 1.75 -6.40 2.70 -2.05 0.90 -3.75 1.65 -3.85 1.65 -0.20 0 -6.10 2.75 -13 6 -5.70 2.75 -15.55 8.05 -19.20 10.35 -13.85 8.85 -22.90 15.60 -31.35 23.30 -3.40 3.15 -5.30 4.35 -7.90 5.10 -2.90 0.90 -7.55 0.90 -11.05 0z m-6.15 -152.60 l-0.15 -119.40 -8.60 -8.45 c-14.05 -13.80 -18.90 -17.85 -31.80 -26.50 -13.60 -9.15 -27.35 -16.80 -40.05 -22.30 -2.05 -0.90 -4.65 -2 -5.75 -2.50 -3.90 -1.75 -21.60 -7.90 -26.75 -9.30 -10.05 -2.75 -18.65 -4.70 -29.50 -6.70 -8.80 -1.60 -26.05 -3.45 -32.35 -3.50 l-3.15 0 0 130.50 0 130.50 7.65 0 c14.50 0 36.30 2.25 53.85 5.55 14.65 2.75 32.95 7.80 46.05 12.70 2 0.75 2.75 1.05 5.70 2.30 16.70 7 31.20 14.30 44 22.10 3.95 2.40 16.10 10.95 18.25 12.80 0.95 0.85 2 1.50 2.25 1.55 0.35 0 0.45 -40 0.35 -119.35z m459.80 -154.90 c2.85 -0.85 6.25 -3.90 7.40 -6.70 1.05 -2.50 0.90 -7.95 -0.25 -10.35 -2.10 -4.35 -6.05 -6.70 -11.30 -6.70 -7.40 0 -12 4.85 -11.90 12.50 0.10 6.95 4.85 11.60 12.20 11.95 0.70 0 2.40 -0.30 3.85 -0.70z"/>
  <path d="M792 476.45 c-4.25 -1.10 -5.95 -1.75 -9 -3.25 -6.50 -3.25 -11.80 -8.55 -15.15 -15.20 l-1.65 -3.25 -12.75 -0.25 c-13.45 -0.25 -13.55 -0.30 -16.70 -2.90 -0.80 -0.65 -13.80 -13.45 -28.85 -28.40 l-27.40 -27.20 -38.20 0 c-24.70 0 -38.70 0.20 -39.55 0.50 -1.05 0.40 -7.25 5.50 -9.75 8 -0.15 0.15 -2.15 1.95 -4.50 4 -2.35 2.05 -5.05 4.45 -6 5.30 -16.10 14.25 -23.50 20.40 -26.20 21.85 -1.90 1.05 -2.95 1.10 -16.05 1.45 -7.70 0.15 -27.65 0.50 -44.35 0.70 -33.85 0.40 -33.35 0.40 -37.20 -2.95 -5.65 -5 -4.45 -14.30 2.35 -17.65 2.15 -1.05 2.80 -1.10 29.95 -1.40 15.25 -0.15 34.20 -0.45 42.15 -0.60 l14.35 -0.35 1.90 -1.45 c1 -0.80 2.75 -2.30 3.85 -3.30 1.10 -1 3.70 -3.30 5.75 -5.10 2.05 -1.80 3.85 -3.35 4 -3.50 0.15 -0.15 1.95 -1.70 4 -3.50 2.05 -1.80 3.85 -3.35 4 -3.50 0.15 -0.15 1.95 -1.70 4 -3.50 2.05 -1.75 4.10 -3.60 4.50 -4 2.20 -2.30 12.30 -10.65 14.35 -11.85 l2.40 -1.40 45.30 0 45.30 0 2.85 1.75 c3.50 2.20 52.95 50.25 56.70 55.15 l1.80 2.35 8.65 -0.05 8.65 0 0.50 -1.85 c2.05 -7.65 9.60 -16.25 17.65 -20 5.80 -2.75 8.50 -3.30 15.60 -3.30 5.65 0 7.05 0.15 10.60 1.30 7.50 2.45 12.85 6.15 17.55 12.20 2.10 2.75 5 8.90 5.85 12.55 0.95 3.80 0.95 13.35 0.05 16.75 -3.50 13.35 -12.80 22.30 -26.80 25.70 -3.10 0.75 -11.85 0.85 -14.50 0.15z m12.95 -23.45 c9.50 -4.90 8.80 -18.05 -1.20 -22.20 -5.65 -2.40 -13.65 0.85 -16 6.50 -0.95 2.30 -0.95 7.05 0 9.35 2.75 6.60 10.90 9.60 17.20 6.35z"/>
  <path d="M874.25 389.25 c-7.30 -1.90 -12 -4.50 -17.10 -9.60 -3.45 -3.40 -4.50 -4.90 -6.40 -8.85 l-2.30 -4.80 -43.60 -0.10 c-24 -0.10 -46.50 -0.15 -50.10 -0.15 -11.20 -0.05 -9.95 0.70 -27.25 -16.45 -29.75 -29.45 -30 -29.70 -34.90 -30.75 -1.85 -0.40 -15.70 -0.55 -46.25 -0.55 -43.55 0 -43.60 0 -45.35 1.05 -2.25 1.35 -5.30 3.90 -12.70 10.45 -3.25 2.90 -7.45 6.60 -9.30 8.25 -3.90 3.40 -21.60 19.35 -22 19.75 -0.15 0.15 -1.95 1.70 -4 3.50 -2.05 1.80 -4.55 3.95 -5.50 4.85 -2.20 2 -5.35 4.25 -7.55 5.45 -1.60 0.90 -3.75 0.95 -37.45 1.10 -40.80 0.20 -40.45 0.20 -44.05 -3.50 -2.45 -2.55 -3.15 -4.75 -2.75 -8.85 0.30 -3.55 1.65 -5.80 4.70 -7.85 3.10 -2.10 5.45 -2.25 39.10 -1.80 l31.75 0.40 4.05 -3.55 c6.95 -6.05 26.30 -23.30 29.70 -26.45 1.80 -1.70 6.75 -6.20 11 -10.05 4.25 -3.85 8.60 -7.80 9.65 -8.75 1.05 -0.95 2.85 -2.35 4 -3.10 4.60 -3.05 1.65 -2.95 59.65 -2.80 l52.95 0.15 2.90 1.45 c2.15 1.10 5.15 3.70 12.50 11 5.30 5.25 15.40 15.25 22.40 22.20 l12.80 12.65 48.10 0.25 c35.25 0.25 48.05 0.15 48.05 -0.25 0 -1 2.15 -5.20 4.10 -8.20 10.60 -15.80 31.75 -19.95 48.35 -9.45 9.40 5.95 15.50 17.30 15.55 28.70 0 14.85 -8.60 27.55 -22.50 33.10 -5.55 2.25 -14.80 2.95 -20.25 1.55z m12.40 -23 c4.55 -1.90 7.35 -6.20 7.35 -11.35 -0.05 -5.10 -2.40 -8.95 -6.75 -10.95 -2.45 -1.15 -7.90 -1.25 -10.40 -0.20 -9.25 3.85 -9.80 17.35 -0.90 21.90 3.15 1.55 7.75 1.85 10.70 0.60z"/>
 </g>
 <g fill="#fff300">
  <path d="M525.25 780.75 c-5.40 -0.85 -17.50 -3.50 -18.10 -3.95 -0.10 -0.05 0.55 -4.20 2.60 -16.95 0.70 -4.35 1.25 -8.70 1.25 -9.65 0 -1.05 0.30 -1.85 0.75 -2 0.40 -0.15 3.20 0.20 6.20 0.80 4.35 0.85 6.80 1.05 11.90 0.90 5.80 -0.15 6.70 -0.30 9.50 -1.60 4.15 -1.90 8.05 -6.05 10.40 -10.95 1.55 -3.25 1.70 -3.90 1.25 -5.15 -0.70 -1.85 -1.75 -4 -20.05 -41.70 -3.30 -6.75 -6.70 -13.80 -7.65 -15.75 -3.95 -8.25 -12.50 -25.85 -14.50 -30 -5.80 -11.80 -11.80 -24.20 -11.80 -24.40 0 -0.30 -9.05 -19.30 -16.55 -34.70 -1.35 -2.80 -2.45 -5.30 -2.45 -5.60 0 -0.40 6.75 -0.50 23.30 -0.45 l23.25 0.15 0.70 1.25 c0.35 0.70 1.15 2.25 1.65 3.50 0.95 2.15 2.50 5.45 7.15 15.30 1.10 2.45 2.45 5.45 2.95 6.70 0.50 1.25 1.95 4.40 3.20 7.05 1.25 2.65 2.30 4.95 2.30 5.10 0 0.15 0.90 2.25 2 4.60 1.10 2.35 2 4.40 2 4.45 0 0.10 1.15 2.65 2.50 5.60 3.75 8.05 4.85 10.55 6.60 14.70 0.65 1.50 1.65 3.70 2.30 4.90 0.60 1.20 1.10 2.35 1.10 2.60 0 0.35 0.65 1.90 4.85 11 0.70 1.50 1.70 3.85 2.25 5.20 0.50 1.40 1.45 3.65 2.10 5 2.95 6.55 4.70 10.65 5 11.80 l0.35 1.25 -1.25 -1.40 c-0.70 -0.75 -1.30 -1.75 -1.30 -2.15 0 -0.40 -0.65 -2 -1.45 -3.60 -0.75 -1.55 -1.55 -3.50 -1.75 -4.35 -0.40 -1.80 -2.80 -6.70 -3.65 -7.65 -0.35 -0.35 -0.65 -0.90 -0.65 -1.20 0 -0.55 -0.30 -1.30 -4.75 -11.05 -0.95 -2.20 -1.75 -4.15 -1.75 -4.40 0 -0.25 -0.30 -1 -0.70 -1.60 -0.40 -0.60 -1.65 -3.35 -2.80 -6.10 -2.30 -5.40 -5.25 -11.95 -6 -13.35 -0.30 -0.50 -0.50 -1.25 -0.50 -1.65 0 -0.40 -0.20 -0.75 -0.50 -0.75 -0.25 0 -0.50 -0.30 -0.50 -0.70 0 -0.40 -0.40 -1.55 -0.95 -2.65 -1.25 -2.60 -3.20 -6.85 -3.30 -7.15 -0.20 -0.60 -1.30 -3.10 -3.45 -7.65 -1.25 -2.75 -2.30 -5.05 -2.30 -5.20 0 -0.15 -0.85 -2.10 -1.95 -4.30 -1.05 -2.25 -2.25 -4.95 -2.60 -5.95 -0.35 -1.05 -0.85 -1.90 -1.05 -1.90 -0.20 0 -0.40 -0.20 -0.40 -0.50 0 -0.25 -0.70 -2 -1.55 -3.85 -0.85 -1.90 -2.05 -4.50 -2.70 -5.90 -1.10 -2.45 -3.75 -5.50 -3.75 -4.30 0 0.45 -4.95 0.55 -21.10 0.55 -11.65 0 -21.35 0 -21.60 0 -0.25 0 -0.10 0.40 0.30 0.90 0.80 0.90 8.95 17.45 9.10 18.40 0.05 0.35 0.40 0.95 0.75 1.40 0.35 0.45 0.50 0.80 0.30 0.80 -0.25 0 -0.10 0.40 0.30 0.90 0.40 0.45 1 1.40 1.30 2.10 0.35 0.70 1.70 3.60 3.05 6.50 1.35 2.90 3.10 6.70 3.85 8.50 0.80 1.80 1.70 3.60 2 4 0.35 0.40 0.95 1.65 1.35 2.75 0.90 2.30 6 12.90 6.40 13.25 0.60 0.60 2.75 5.75 2.60 6.35 -0.10 0.35 0.10 0.65 0.35 0.65 0.60 0 2.15 2.75 1.75 3.10 -0.10 0.15 0.10 0.55 0.55 0.90 0.40 0.35 0.75 0.95 0.75 1.30 0 0.65 0.90 2.60 1.50 3.20 0.15 0.15 0.30 0.55 0.40 0.95 0.10 0.40 0.60 1.35 1.15 2.15 0.55 0.75 0.90 1.40 0.70 1.40 -0.15 0 0 0.50 0.35 1.15 0.35 0.60 0.55 1.25 0.50 1.45 -0.05 0.15 0.25 0.60 0.65 0.90 0.40 0.35 0.75 0.80 0.75 1.05 0 0.20 1.20 2.90 2.70 5.90 1.45 3.05 2.80 5.90 2.95 6.40 0.20 0.50 0.55 1.25 0.80 1.65 1.45 2.25 14.20 28.90 14.15 29.60 0 0.45 0.30 0.95 0.70 1.10 0.45 0.15 0.65 0.50 0.45 0.75 -0.15 0.25 -0.05 0.60 0.20 0.80 0.80 0.45 2.05 3.35 1.75 3.85 -0.20 0.30 -0.10 0.65 0.15 0.85 0.60 0.35 1.10 1.30 4.45 8.10 4.15 8.35 4.70 10.50 2.95 11.75 -0.45 0.35 -0.70 0.85 -0.55 1.15 0.70 1.10 -2.20 5.40 -5.80 8.60 -3.90 3.50 -5.65 4.65 -6.35 4.25 -0.25 -0.15 -1.10 0.05 -1.85 0.45 -1.10 0.55 -3.20 0.75 -8.30 0.75 -6.90 0 -10.75 -0.50 -13.80 -1.85 -0.90 -0.40 -1.90 -0.65 -2.20 -0.55 -0.30 0.10 -0.60 1.70 -0.65 3.65 -0.05 1.95 -0.40 4.85 -0.70 6.50 -0.55 2.90 -1.15 6.45 -1.80 11.25 -0.20 1.25 -0.45 2.60 -0.65 3 -0.60 1.50 -0.45 2.55 0.45 3.05 0.50 0.25 1.10 0.40 1.30 0.40 0.20 -0.05 0.75 0.05 1.15 0.20 2.10 0.85 9.75 2.40 10.80 2.20 0.65 -0.10 1.25 0 1.30 0.25 0.20 0.55 8.70 1.55 9.90 1.15 0.50 -0.15 1.05 -0.05 1.25 0.25 0.40 0.70 14.40 0.65 17.85 -0.05 8.75 -1.80 14.90 -4.25 19.90 -7.95 4 -2.95 6.50 -5.60 10.60 -11.15 4.35 -5.95 5.05 -7.10 11.35 -19.85 3.10 -6.20 5.80 -11.65 6.05 -12.10 0.30 -0.50 0.50 -1.10 0.50 -1.35 0 -0.50 2.40 -5.95 3.75 -8.55 0.35 -0.70 1.55 -3.40 2.65 -6 1.10 -2.60 2.40 -5.40 2.80 -6.25 0.45 -0.80 0.80 -1.75 0.80 -2.10 0 -0.35 0.70 -1.95 1.50 -3.55 0.85 -1.65 1.50 -3.20 1.50 -3.45 0 -0.25 0.70 -1.90 1.50 -3.60 0.85 -1.70 1.55 -3.60 1.65 -4.20 0.05 -0.60 0.40 -1.45 0.80 -1.95 1 -1.20 3.10 -6.45 2.75 -6.95 -0.15 -0.25 0.05 -0.45 0.50 -0.45 0.40 0 0.95 -0.80 1.30 -1.85 0.65 -2.20 0.95 -2.90 2.65 -6.65 2.25 -5 2.80 -6.20 3.75 -8.75 0.55 -1.35 2 -4.95 3.20 -8 1.25 -3 2.45 -6.05 2.65 -6.70 0.20 -0.65 1.35 -3.35 2.60 -6 3.25 -7 3.50 -7.60 4.35 -10.05 0.40 -1.25 1.75 -4.55 3 -7.40 1.25 -2.80 2.30 -5.35 2.30 -5.70 0 -0.30 0.45 -1.45 0.95 -2.60 1.90 -4.10 3.05 -6.80 3.05 -7.25 0 -0.25 0.60 -1.70 1.30 -3.25 0.70 -1.60 1.20 -3 1.05 -3.15 -0.20 -0.15 0.05 -0.60 0.45 -1 0.40 -0.45 0.65 -1.10 0.50 -1.45 -0.15 -0.40 -0.10 -0.70 0.10 -0.70 0.45 0 1.30 -1.75 2.85 -5.90 0.65 -1.70 1.55 -3.85 1.95 -4.75 0.40 -0.85 1 -2.50 1.30 -3.60 0.35 -1.10 0.80 -2.20 1 -2.50 0.85 -1.10 0.75 -2.90 -0.20 -3.45 -0.70 -0.40 -1 -0.40 -1.15 0.10 -0.20 0.45 -4.70 0.60 -20.20 0.60 l-20 0 -0.75 1.90 c-0.45 1 -1.10 2.55 -1.45 3.35 -0.35 0.85 -1.25 3.20 -1.95 5.30 -1.55 4.80 -4.70 12.95 -5.35 13.95 -0.60 0.95 -0.60 1 -2.20 6.10 -0.75 2.40 -1.65 4.60 -2.05 4.95 -0.40 0.30 -0.60 0.75 -0.45 0.95 0.25 0.45 -1 4.05 -2.75 7.85 -0.55 1.20 -1 2.45 -1 2.85 0 0.35 -0.45 1.25 -1 1.90 -0.50 0.70 -0.85 1.40 -0.70 1.50 0.35 0.40 -0.90 2.90 -1.45 2.90 -0.25 0 -0.35 0.30 -0.20 0.70 0.25 0.65 -0.75 3.85 -2.45 7.55 -0.35 0.85 -1.25 3.20 -2 5.25 -0.75 2.05 -1.60 3.90 -2 4.15 -0.35 0.20 -0.55 0.70 -0.35 1.15 0.25 0.70 -2.20 5 -2.65 4.60 -0.20 -0.20 7.90 -20.90 9.85 -25.30 0.55 -1.15 1.50 -3.75 2.20 -5.75 0.65 -1.95 2 -5.40 2.90 -7.60 0.95 -2.20 2.35 -5.80 3.10 -8 0.75 -2.20 1.55 -4.20 1.75 -4.50 0.20 -0.25 0.75 -1.75 1.25 -3.25 0.45 -1.50 1.25 -3.65 1.75 -4.75 0.45 -1.10 1.15 -2.90 1.50 -4 0.35 -1.10 1.05 -2.90 1.50 -4 0.45 -1.10 1.60 -4.10 2.55 -6.60 l1.65 -4.65 22.40 0 c20.30 0 24.10 0.20 22.50 1.20 -0.25 0.15 -1.30 2.60 -2.30 5.40 -1.05 2.85 -2.05 5.50 -2.30 5.95 -0.20 0.45 -1.35 3.25 -2.50 6.25 -1.15 3 -2.50 6.35 -3 7.45 -0.45 1.10 -2.05 5.05 -3.45 8.75 -1.45 3.70 -3.15 7.90 -3.80 9.25 -0.65 1.40 -1.75 4.10 -2.50 6 -0.75 1.95 -1.80 4.50 -2.35 5.75 -1.55 3.45 -1.75 4.05 -2.95 7 -0.60 1.50 -1.50 3.65 -2 4.80 -0.55 1.10 -0.95 2.15 -0.95 2.30 0 0.20 -0.65 1.80 -1.50 3.55 -0.80 1.80 -1.50 3.45 -1.50 3.70 0 0.25 -0.55 1.55 -1.20 2.95 -0.65 1.35 -2 4.50 -3.05 6.95 -1 2.50 -2 4.85 -2.25 5.25 -0.20 0.45 -2.70 6.20 -5.50 12.75 -2.80 6.60 -5.65 13.15 -6.25 14.50 -0.65 1.40 -3 6.80 -5.25 12 -2.25 5.25 -4.75 10.95 -5.60 12.75 -0.80 1.80 -2.50 5.50 -3.75 8.25 -2.20 4.90 -8.15 16.90 -10.10 20.45 -9.65 17.15 -19.60 25.30 -34.75 28.30 -6.95 1.40 -20.35 1.30 -30.05 -0.25z"/>
  <path d="M193.75 780.45 c-3.55 -0.15 -11.30 -0.35 -17.10 -0.40 l-10.65 -0.05 0 -100.25 0 -100.25 67.50 0 c59.65 0 67.50 0.10 67.50 0.75 0 0.65 -1.35 0.75 -9.20 0.75 -6.90 0 -9.30 -0.15 -9.45 -0.60 -0.20 -0.50 -0.30 -0.50 -0.30 0 -0.05 0.85 -18.55 0.90 -19.45 0 -0.45 -0.45 -0.60 -0.45 -0.60 0 0 0.70 -1.80 0.80 -2.25 0.10 -0.15 -0.25 -1.10 -0.50 -2.05 -0.50 -0.95 0 -1.70 0.25 -1.70 0.50 0 0.55 -2.65 0.70 -3.20 0.15 -0.50 -0.50 -2.80 -0.55 -2.80 -0.05 0 0.60 -1.90 0.50 -2.30 -0.15 -0.20 -0.40 -0.45 -0.35 -0.75 0.10 -0.30 0.55 -0.55 0.55 -1.05 0.05 -0.75 -0.75 -10.90 -0.85 -10.90 -0.10 0 0.75 -29.65 0.65 -30.40 -0.10 -0.45 -0.45 -0.60 -0.45 -0.60 0 0 0.75 -1.70 0.80 -3.05 0.10 -0.65 -0.35 -0.95 -0.35 -0.95 0 0 0.75 -31.60 0.70 -32.40 -0.10 -0.45 -0.45 -0.60 21.45 -0.60 98.70 0 94.15 0.05 99.35 0.90 99.60 0.45 0.15 18.40 0.35 39.85 0.40 34.20 0.10 39.65 0 44.10 -0.70 2.80 -0.45 5.40 -1 5.75 -1.20 0.35 -0.25 1.20 -0.35 1.90 -0.30 1.55 0.15 8.95 -1.80 13.95 -3.65 5.50 -2.05 14 -6.70 16.05 -8.75 0.15 -0.15 0.85 -0.55 1.65 -0.95 2.95 -1.55 13.85 -13.75 13.85 -15.55 0 -0.30 0.70 -1.55 1.50 -2.75 2.75 -4 4.50 -8.95 5.80 -16.50 0.90 -5.20 1.45 -14.40 0.95 -15.60 -0.20 -0.50 -0.35 -1.70 -0.30 -2.70 0.15 -2.30 -1.35 -10.20 -2.30 -12.45 -0.45 -0.95 -0.85 -2.25 -0.95 -2.90 -0.25 -1.80 -4.70 -10.45 -6.50 -12.55 -0.95 -1.05 -1.70 -2.15 -1.70 -2.40 0 -0.80 -7.75 -8 -10.80 -10.05 -3.15 -2.10 -11.35 -6.15 -13.80 -6.85 -0.25 -0.10 -0.45 -0.15 -0.50 -0.25 -0.10 -0.05 -0.60 -0.15 -1.15 -0.25 -0.55 -0.05 -2 -0.40 -3.25 -0.75 -3.45 -0.90 -6.90 -1.45 -11.25 -1.80 -2.20 -0.15 -4.45 -0.45 -5 -0.70 -0.90 -0.40 -18.10 -1.05 -33 -1.25 -6.75 -0.10 -14.30 -0.60 -14.65 -1 -0.75 -0.75 44.80 0.75 53.60 1.75 22.15 2.60 37.30 12.25 46.40 29.55 3.85 7.25 5.85 15.65 6.25 26.05 0.65 16.75 -3.70 29.55 -14.40 42.20 -3.10 3.65 -9.40 9.05 -13 11.10 -8.20 4.70 -8.10 4.65 -16.15 7.40 -4.60 1.55 -8.85 2.65 -14.80 3.75 -1.25 0.25 -6.30 0.75 -11.25 1.15 -9.50 0.80 -38.45 0.95 -51 0.25z"/>
  <path d="M350 679.75 l0 -100.25 56.25 0 56.25 0 0 4.95 c0 2.75 0.15 5.30 0.30 5.70 0.20 0.60 0 0.70 -0.75 0.50 -0.95 -0.25 -1.05 -0.65 -1.05 -5.15 l0 -4.90 -1.85 -0.20 c-1.05 -0.15 -1.95 -0.05 -2.05 0.20 -0.25 0.60 -11.45 0.50 -11.85 -0.10 -0.15 -0.25 -1.55 -0.50 -3.05 -0.50 -1.50 0 -2.70 0.25 -2.70 0.50 0 0.65 -7.35 0.65 -7.75 0 -0.40 -0.60 -7.30 -0.55 -8.10 0.05 -0.35 0.35 -0.70 0.30 -0.90 -0.10 -0.30 -0.40 -0.45 -0.40 -0.75 0.05 -0.30 0.45 -0.60 0.45 -1.45 -0.10 -0.90 -0.55 -1.15 -0.55 -1.55 0.10 -0.35 0.60 -0.60 0.60 -1.10 0.10 -0.75 -0.75 -5.40 -0.80 -5.40 -0.05 0 0.55 -4 0.40 -10.10 -0.30 -2.10 -0.25 -2.90 -0.20 -2.90 0.25 0 0.40 -1.05 0.55 -3.35 0.50 -1.90 -0.05 -12.80 -0.10 -24.25 -0.05 l-20.90 0.05 0 98.90 0 98.85 19.35 -0.10 19.35 -0.10 0.25 -1.15 c0.30 -1.30 0.40 -22.20 0.10 -23.40 -0.10 -0.40 -0.15 -10.70 -0.10 -22.85 0.05 -19.35 0.15 -22.15 0.80 -22.15 0.65 0 0.75 4.30 0.75 35.50 l0 35.50 -20.75 0 -20.75 0 0 -100.25z"/>
  <path d="M688 679.75 l0 -100.25 85 0 85 0 0 100.25 0 100.25 -21 0 -21 0 0 -1.35 c0 -1.05 0.15 -1.20 0.50 -0.65 0.40 0.70 7.45 0.80 39.90 0.50 0.45 0 0.60 -20.10 0.60 -98.95 l0 -98.95 -3.10 -0.20 c-1.75 -0.15 -3.20 -0.05 -3.30 0.15 -0.10 0.20 -0.75 0.15 -1.40 -0.15 -0.95 -0.45 -1.50 -0.45 -2.25 0 -1.20 0.75 -30.75 0.85 -31.20 0.10 -0.15 -0.25 -0.75 -0.50 -1.30 -0.50 -0.50 0 -0.95 0.25 -0.95 0.50 0 0.30 -2 0.50 -4.95 0.50 -2.80 0 -5.15 -0.20 -5.30 -0.50 -0.15 -0.25 -0.95 -0.50 -1.80 -0.50 -0.80 0 -1.45 0.25 -1.45 0.50 0 0.75 -33.85 0.65 -36 -0.10 -1.30 -0.45 -1.75 -0.45 -1.90 0 -0.25 0.75 -1.85 0.75 -3.15 0.10 -0.65 -0.35 -0.95 -0.35 -0.95 0 0 0.65 -5.85 0.65 -6.25 0 -0.15 -0.25 -1.75 -0.50 -3.55 -0.50 -1.80 0 -3.20 0.20 -3.20 0.50 0 0.30 -0.45 0.50 -0.95 0.50 -0.55 0 -1.15 -0.20 -1.30 -0.50 -0.45 -0.75 -5.10 -0.65 -5.40 0.15 -0.15 0.45 -0.45 0.45 -1.25 0 -1.20 -0.75 -25.10 -0.75 -25.10 -0.05 0 0.20 -4.95 0.40 -11 0.40 l-11 0 -0.05 97.40 c0 53.55 -0.15 97.95 -0.25 98.75 -0.25 1.30 -0.15 1.35 2.15 1.35 13.90 0.15 36.70 -0.05 37.35 -0.30 0.75 -0.30 0.80 -6.75 0.80 -81.75 l0 -81.45 1.05 0 c0.75 0 0.95 0.20 0.75 0.80 -0.15 0.45 -0.30 37.55 -0.30 82.50 l0 81.70 -21.25 0 -21.25 0 0 -100.25z"/>
  <path d="M816 695.25 c0 -44.80 0.15 -81.25 0.35 -81.05 0.40 0.40 0.30 161.85 -0.10 162.25 -0.15 0.10 -0.25 -36.40 -0.25 -81.20z"/>
  <path d="M210.15 746.65 c-1.20 -0.10 -2.15 -0.40 -2.15 -0.65 0 -0.25 6.35 -0.30 14.90 -0.15 13.80 0.30 18.90 0.05 26.05 -1.15 4.25 -0.75 10 -3.30 13.65 -6.15 4.30 -3.35 8.40 -11.45 8.40 -16.65 0 -1.20 0.20 -1.85 0.50 -1.65 1.10 0.70 0.15 7.75 -1.05 7.75 -0.20 0 -0.30 0.30 -0.15 0.70 0.30 0.85 -1.60 4.85 -2.60 5.45 -0.40 0.20 -0.70 0.70 -0.70 1.10 0 0.35 -0.60 1.15 -1.35 1.75 -2.95 2.20 -4.30 3.25 -4.90 3.85 -1.15 1.10 -5.35 3.15 -5.85 2.85 -0.25 -0.15 -0.85 0.05 -1.30 0.45 -0.45 0.40 -3.45 1.25 -6.60 1.80 -5.05 0.95 -7.45 1.05 -20.25 0.95 -7.95 -0.05 -15.45 -0.15 -16.60 -0.25z"/>
  <path d="M206.75 717.50 c0 -23.60 0.10 -27.05 0.75 -27.20 0.40 -0.15 5.80 -0.40 12 -0.55 6.20 -0.20 11.35 -0.50 11.50 -0.70 0.75 -1 21.10 1.20 23.65 2.55 0.50 0.25 1.30 0.55 1.80 0.65 1.25 0.25 6.05 3.25 6.05 3.80 0 0.25 0.30 0.45 0.70 0.45 0.95 0 4.75 4.25 5.60 6.25 0.35 0.90 0.90 1.80 1.15 2 0.75 0.45 2.10 5.60 1.95 7.50 -0.15 2.30 -0.90 2.25 -0.90 0 0 -2.10 -1.75 -7.65 -2.80 -8.80 -0.40 -0.40 -0.70 -1 -0.70 -1.25 0 -1.05 -5.40 -5.75 -8.50 -7.40 -1.80 -0.95 -5.10 -2.25 -7.25 -2.90 -3.90 -1.15 -4.40 -1.15 -23.45 -1 -10.70 0.05 -19.65 0.25 -19.85 0.40 -0.25 0.15 -0.45 12.15 -0.45 26.75 0 20.80 -0.15 26.45 -0.60 26.45 -0.50 0 -0.65 -5.75 -0.65 -27z"/>
  <path d="M271.05 718.15 c0.10 -1.35 0.85 -3.50 0.95 -2.65 0.05 0.40 0.20 1.35 0.30 2.15 0.15 1 0.05 1.35 -0.55 1.35 -0.40 0 -0.75 -0.40 -0.70 -0.85z"/>
  <path d="M576 688.45 c0 -0.60 0.55 -1.85 3.55 -8.35 1.10 -2.30 1.95 -4.25 1.95 -4.40 0 -0.15 0.40 -1.20 0.90 -2.35 0.55 -1.15 2.15 -4.95 3.60 -8.45 1.50 -3.50 2.85 -6.25 3.05 -6.10 0.45 0.25 -0.05 2.20 -0.60 2.20 -0.25 0 -0.30 0.30 -0.15 0.65 0.20 0.65 -3.55 9.35 -4.30 9.85 -0.20 0.15 -0.35 0.60 -0.35 1.05 0 1.15 -6.70 16.45 -7.20 16.45 -0.25 0 -0.45 -0.25 -0.45 -0.55z"/>
  <path d="M390 658 c0 -1.45 0.20 -2 0.75 -2 0.55 0 0.75 0.55 0.75 2 0 1.45 -0.20 2 -0.75 2 -0.55 0 -0.75 -0.55 -0.75 -2z"/>
  <path d="M206.90 635 c-0.10 -16.55 0 -21 0.50 -21 0.45 0 0.60 4.55 0.60 21 0 13.35 -0.20 21 -0.50 21 -0.30 0 -0.55 -7.75 -0.60 -21z"/>
  <path d="M390 653.50 c0 -0.25 0.35 -0.50 0.75 -0.50 0.40 0 0.75 0.25 0.75 0.50 0 0.30 -0.35 0.50 -0.75 0.50 -0.40 0 -0.75 -0.20 -0.75 -0.50z"/>
  <path d="M390 624.25 c0 -8.35 0.10 -9.75 0.75 -9.75 0.65 0 0.75 1.40 0.75 9.75 0 8.35 -0.10 9.75 -0.75 9.75 -0.65 0 -0.75 -1.40 -0.75 -9.75z"/>
  <path d="M730.15 613.75 c-1.05 -1.10 1.55 -1.75 7.25 -1.75 6.55 0 8.25 0.70 2 0.80 -3 0.05 -4.65 0.30 -4.90 0.70 -0.25 0.40 -1 0.55 -1.95 0.40 -0.85 -0.10 -1.60 -0.05 -1.65 0.15 -0.10 0.20 -0.40 0.05 -0.75 -0.30z"/>
  <path d="M208.05 612.90 c-0.55 -0.85 1.10 -0.90 32.30 -0.80 18.10 0.05 29.25 0.20 24.80 0.25 -5.05 0.10 -8.15 0.35 -8.15 0.70 0 0.30 -0.35 0.30 -1 -0.05 -1.40 -0.75 -9.50 -0.55 -9.50 0.25 0 0.85 -10.60 0.75 -11.15 -0.10 -0.45 -0.70 -11.90 -0.90 -12.35 -0.20 -0.15 0.25 -3.45 0.55 -7.35 0.60 -6.30 0.20 -7.15 0.10 -7.60 -0.65z"/>
  <path d="M298.90 613.50 c-0.10 -0.30 -1.10 -0.60 -2.30 -0.70 -3.10 -0.25 -3.20 -0.80 -0.20 -0.80 1.45 0 2.60 -0.20 2.60 -0.45 0 -0.25 0.45 -0.35 1 -0.20 1.35 0.35 1.40 2.65 0.05 2.65 -0.55 0 -1.05 -0.25 -1.15 -0.50z"/>
  <path d="M391.35 613.70 c-0.50 -0.55 0.15 -1.20 1.20 -1.20 0.50 0 0.95 0.35 0.95 0.75 0 0.75 -1.55 1.05 -2.15 0.45z"/>
  <path d="M423 613.70 c0 -0.25 -1.70 -0.55 -3.80 -0.60 -5.80 -0.15 -6.45 -1.05 -0.80 -1.10 3.70 0 4.70 0.15 4.95 0.75 0.15 0.45 0.15 0.95 -0.05 1.10 -0.15 0.20 -0.30 0.10 -0.30 -0.15z"/>
  <path d="M427.05 613.65 c-0.05 -0.35 -0.60 -0.65 -1.30 -0.65 -0.70 0 -1.25 -0.20 -1.25 -0.45 0 -0.45 4.40 -0.35 4.85 0.15 0.20 0.15 -0.15 0.30 -0.70 0.30 -0.60 0 -1.20 0.30 -1.30 0.65 -0.20 0.50 -0.30 0.50 -0.30 0z"/>
  <path d="M439.50 613.50 c0 -0.30 -1.40 -0.50 -3.20 -0.50 -1.80 0 -3.40 -0.25 -3.55 -0.50 -0.30 -0.45 0.75 -0.50 7.60 -0.05 0.35 0.05 0.50 0.40 0.35 0.80 -0.35 0.85 -1.20 1 -1.20 0.25z"/>
  <path d="M447.30 613.20 c-0.20 -0.45 -0.65 -0.70 -1.05 -0.50 -0.40 0.15 -0.75 0.05 -0.75 -0.20 0 -0.25 1.20 -0.40 2.70 -0.35 1.50 0.05 2.60 0.25 2.45 0.50 -0.10 0.20 -0.55 0.35 -0.95 0.35 -0.40 0 -0.70 0.25 -0.70 0.50 0 0.80 -1.35 0.55 -1.70 -0.30z"/>
  <path d="M460 613.35 c0 -0.60 -0.50 -0.70 -2.10 -0.55 -1.60 0.15 -1.90 0.10 -1.15 -0.25 0.55 -0.25 1.75 -0.50 2.65 -0.50 0.85 -0.05 1.60 -0.25 1.60 -0.55 0 -0.25 0.45 -0.50 1.05 -0.50 0.80 0 1 0.25 0.85 1.40 -0.10 1.05 -0.45 1.40 -1.50 1.50 -0.95 0.10 -1.40 -0.05 -1.40 -0.55z"/>
  <path d="M747.50 613.60 c0 -0.25 -0.60 -0.65 -1.35 -0.95 -1.20 -0.45 -0.90 -0.55 2.25 -0.60 1.95 -0.05 3.60 0.10 3.60 0.25 0 0.15 -0.30 0.60 -0.70 1 -0.75 0.75 -3.80 1 -3.80 0.30z"/>
  <path d="M777.50 613.25 c0 -0.70 -1 -0.75 -7.60 -0.60 -4.20 0.10 -8.20 0 -8.90 -0.20 -0.70 -0.20 6.05 -0.30 15 -0.30 8.95 0.05 13.40 0.15 9.90 0.20 -5.25 0.15 -6.40 0.30 -6.40 0.90 0 0.40 -0.45 0.75 -1 0.75 -0.55 0 -1 -0.35 -1 -0.75z"/>
  <path d="M810.30 613.20 c-0.45 -1.20 -0.45 -1.20 2.10 -1.15 1.45 0.05 1.80 0.20 1 0.30 -0.80 0.10 -1.40 0.55 -1.40 0.95 0 0.95 -1.30 0.90 -1.70 -0.10z"/>
  <path d="M396.25 613 c-0.85 -0.30 -0.80 -0.40 0.45 -0.70 0.80 -0.20 1.65 -0.15 1.90 0.10 0.60 0.60 -1.05 1.05 -2.35 0.60z"/>
  <path d="M753.75 612.45 c-0.20 -0.25 0.95 -0.45 2.80 -0.45 1.70 0 3 0.10 2.90 0.20 -0.55 0.45 -5.45 0.70 -5.70 0.25z"/>
  <path d="M277.15 612.15 c0.45 -0.10 1.25 -0.10 1.75 0 0.45 0.15 0.05 0.25 -0.90 0.25 -0.95 0 -1.35 -0.10 -0.85 -0.25z"/>
  <path d="M282.35 612.15 c0.90 -0.10 2.50 -0.10 3.50 0 1.05 0.10 0.35 0.20 -1.60 0.20 -1.90 0 -2.75 -0.10 -1.90 -0.20z"/>
  <path d="M299.50 608.50 c0 -0.55 0.35 -1 0.75 -1 0.40 0 0.75 0.45 0.75 1 0 0.55 -0.35 1 -0.75 1 -0.40 0 -0.75 -0.45 -0.75 -1z"/>
  <path d="M299.50 606 c0 -0.55 0.35 -1 0.75 -1 0.40 0 0.75 0.45 0.75 1 0 0.55 -0.35 1 -0.75 1 -0.40 0 -0.75 -0.45 -0.75 -1z"/>
  <path d="M461 601 c0 -1 0.25 -1.50 0.75 -1.50 0.50 0 0.75 0.50 0.75 1.50 0 1 -0.25 1.50 -0.75 1.50 -0.50 0 -0.75 -0.50 -0.75 -1.50z"/>
  <path d="M299.50 597 c0 -2.35 0.15 -3 0.75 -3 0.60 0 0.75 0.65 0.75 3 0 2.35 -0.15 3 -0.75 3 -0.60 0 -0.75 -0.65 -0.75 -3z"/>
  <path d="M299.50 593 c0 -0.25 0.35 -0.50 0.75 -0.50 0.40 0 0.75 0.25 0.75 0.50 0 0.30 -0.35 0.50 -0.75 0.50 -0.40 0 -0.75 -0.20 -0.75 -0.50z"/>
  <path d="M299.45 591.90 c0 -0.10 -0.10 -2.45 -0.25 -5.25 -0.20 -4.85 -0.15 -5.05 0.80 -4.80 1.15 0.30 1.35 1.15 0.25 1.15 -0.40 0 -0.75 0.35 -0.75 0.75 0 0.40 0.35 0.75 0.75 0.75 0.60 0 0.75 0.75 0.75 3.75 0 3 -0.15 3.75 -0.75 3.75 -0.40 0 -0.75 -0.05 -0.80 -0.10z"/>
  <path d="M379 540.30 c-3.75 -0.80 -5.15 -1.65 -9.50 -5.65 -5.95 -5.40 -9.95 -8.70 -14.50 -11.95 -5 -3.60 -14.35 -9.70 -15.45 -10.10 -0.45 -0.15 -1.35 -0.65 -2.05 -1.10 -0.70 -0.50 -2.60 -1.60 -4.25 -2.55 -1.65 -0.90 -4 -2.15 -5.25 -2.85 -5.70 -3.10 -18.20 -9.20 -22.25 -10.80 -2.45 -1 -4.90 -2.05 -5.35 -2.30 -1.40 -0.80 -15.70 -5.80 -22.15 -7.75 -7.60 -2.30 -18 -4.95 -22.50 -5.75 -1.90 -0.35 -4.05 -0.80 -4.75 -1.05 -0.70 -0.25 -3.25 -0.80 -5.75 -1.20 -25.75 -4.55 -33.50 -5.30 -52.40 -5.30 -13.20 0.05 -14.55 -0.05 -16.25 -0.90 -2.35 -1.20 -3.75 -2.75 -4.90 -5.30 -0.75 -1.75 -0.90 -3.95 -0.95 -17.75 -0.10 -8.65 -0.05 -14.80 0.10 -13.60 0.10 1.15 0.40 2.10 0.70 2.10 0.25 0 0.45 5.50 0.45 13.75 0 12.55 0.10 13.95 0.95 15.65 1.25 2.45 3 4 5.10 4.60 2.05 0.60 12.80 0.65 13.15 0.10 0.40 -0.65 6 -0.75 8.95 -0.15 1.45 0.25 5.55 0.60 9.10 0.70 3.60 0.15 6.85 0.35 7.25 0.50 0.40 0.10 3.10 0.50 6 0.80 8.05 0.90 27.30 4.40 37.75 6.85 21.30 5.05 41.25 12.10 57.50 20.30 3.30 1.65 7.35 3.70 9 4.45 6.65 3.20 21.30 12.30 30.25 18.70 2.45 1.80 8.70 6.95 11.25 9.35 7.05 6.60 8.05 7.05 15.50 7.10 6.65 0.05 6.75 0 14.10 -6.35 8.55 -7.30 16.55 -13.45 20.85 -16.05 2.25 -1.35 4.30 -3.15 3.95 -3.50 -0.20 -0.15 0 -0.30 0.40 -0.30 0.40 0 2.25 -0.85 4.10 -1.85 1.85 -1.05 4.05 -2.25 4.85 -2.70 0.85 -0.45 1.75 -1.05 2.10 -1.35 0.95 -0.75 17.95 -9.20 22.40 -11.10 2.05 -0.90 5.45 -2.40 7.50 -3.40 2.05 -0.95 4.10 -1.80 4.50 -1.85 0.40 -0.05 2.90 -0.95 5.50 -2 8.75 -3.40 20.35 -7.20 26 -8.45 1.80 -0.40 5.95 -1.30 9.25 -2 17.05 -3.75 30.05 -5.75 40.25 -6.10 2.35 -0.05 6.40 -0.40 9 -0.75 3.25 -0.40 8.50 -0.45 16.60 -0.20 6.50 0.20 12.70 0.20 13.85 0 1.90 -0.30 4.30 -2.05 3.95 -2.85 -0.10 -0.20 0.30 -0.70 0.85 -1.10 0.95 -0.70 1 -1.40 1.15 -17.90 0.10 -9.45 0 -17.65 -0.10 -18.20 -0.25 -0.95 -0.65 -0.70 -3.85 2.35 -1.90 1.90 -3.85 3.45 -4.25 3.45 -0.40 0 -0.70 0.30 -0.70 0.65 0 0.55 -6.05 6.35 -7.05 6.75 -0.20 0.10 -1.30 1.05 -2.40 2.15 -2.10 2 -2.55 2.25 -2.55 1.55 0 -0.40 21.25 -19.70 21.95 -20 0.20 -0.05 0.35 8.35 0.35 18.75 -0.05 18.65 -0.05 18.95 -1.20 21 -0.60 1.20 -2.05 2.75 -3.20 3.50 l-2.05 1.40 -18.55 0.05 c-13.85 0.05 -20.50 0.25 -26.30 0.90 -16.75 1.85 -28.85 3.90 -42 7.10 -12.65 3.10 -33.70 10.20 -39.90 13.50 -1.25 0.65 -2.40 1.20 -2.65 1.20 -0.75 0 -13.65 6.20 -21.45 10.35 -7.70 4.10 -20.60 12.15 -26 16.25 -5.35 4.10 -10.50 8.25 -14.90 12.10 -4.55 4 -6.50 5.25 -9.65 6.10 -3.20 0.80 -5.75 0.85 -9.45 0z"/>
  <path d="M394.45 507.40 c-0.50 -1.95 -0.70 -233.80 -0.15 -237.80 0.30 -2.45 0.50 -2.70 6.10 -7.95 3.20 -2.95 7.50 -7 9.60 -8.95 8.75 -8.25 16.05 -14.45 22.25 -18.85 2.50 -1.80 4.85 -3.60 5.20 -4.05 0.35 -0.45 0.85 -0.80 1.10 -0.80 0.55 0 8.55 -4.80 9.50 -5.75 0.45 -0.40 1.05 -0.75 1.35 -0.75 0.35 0 0.60 -0.20 0.60 -0.50 0 -0.25 0.45 -0.50 1 -0.50 0.55 0 1 -0.35 1 -0.75 0 -0.40 0.40 -0.75 0.90 -0.75 1.15 0 5.80 -2.30 6.60 -3.25 0.35 -0.40 0.95 -0.75 1.35 -0.75 0.85 0 7.65 -3.35 8.70 -4.30 0.40 -0.40 1.15 -0.70 1.55 -0.70 0.70 0 5.15 -1.75 9.65 -3.75 7.70 -3.45 29.05 -10.40 38.25 -12.40 8.05 -1.80 12.90 -2.80 16 -3.30 2.05 -0.35 4.65 -0.80 5.75 -1.05 1.10 -0.25 4.35 -0.70 7.25 -1 2.90 -0.30 6.75 -0.75 8.60 -1.05 4.55 -0.60 18.40 -0.60 18.40 0.05 0 0.30 -2.50 0.50 -6.35 0.55 -3.55 0.05 -6.60 0.10 -6.90 0.15 -0.25 0.05 -2.65 0.25 -5.25 0.45 -2.60 0.20 -6.20 0.60 -8 0.85 -10.50 1.55 -17.95 2.85 -22.75 4 -7.65 1.75 -11.25 2.60 -13 3.05 -6.80 1.75 -20.65 6.25 -21.45 7 -0.30 0.25 -0.90 0.45 -1.40 0.45 -0.55 0 -1.90 0.45 -3 1 -1.15 0.55 -2.30 1 -2.50 1 -0.25 0 -1.40 0.45 -2.50 1 -1.15 0.55 -2.25 1 -2.50 1 -1.15 0 -19.35 8.90 -26.40 12.90 -6.25 3.60 -18.70 11.65 -21.95 14.25 -1.10 0.85 -3.20 2.50 -4.65 3.60 -4.20 3.20 -12.45 10.50 -22.05 19.60 l-8.90 8.40 0 119.90 c0 73.55 -0.20 119.85 -0.50 119.85 -0.25 0 -0.45 -0.05 -0.50 -0.10z"/>
  <path d="M398.15 505.65 c2.65 -2.30 5.60 -4.65 7.10 -5.65 0.65 -0.40 3.45 -2.35 6.30 -4.30 2.85 -1.90 6.10 -4.05 7.20 -4.70 1.95 -1.15 1.95 -1.15 1.05 -0.10 -0.55 0.60 -1.25 1.10 -1.55 1.10 -0.35 0 -0.75 0.35 -0.95 0.75 -0.15 0.40 -0.60 0.75 -0.95 0.75 -0.40 0 -1.55 0.80 -2.55 1.75 -1.05 0.95 -2.45 1.90 -3.20 2.10 -0.75 0.15 -1.75 0.85 -2.25 1.50 -0.55 0.65 -1.95 1.65 -3.15 2.25 -1.20 0.55 -2.70 1.60 -3.35 2.35 -1.70 1.95 -4.35 4.05 -5.15 4.05 -0.45 0 0.25 -0.85 1.45 -1.85z"/>
  <path d="M367.10 505 c-1.45 -1.10 -2.80 -2 -3.05 -2 -0.25 0 -0.55 -0.15 -0.65 -0.35 -0.30 -0.70 -5.50 -4.35 -10.80 -7.70 -10.10 -6.30 -11.20 -6.95 -11.70 -6.95 -0.25 0 -1.10 -0.40 -1.80 -0.90 -0.75 -0.50 -3.25 -1.85 -5.55 -3.05 -2.30 -1.15 -4.55 -2.30 -5 -2.55 -0.70 -0.40 -4.15 -2 -11.80 -5.45 -1.10 -0.50 -3.55 -1.65 -5.40 -2.50 -1.85 -0.85 -3.60 -1.55 -3.90 -1.55 -0.25 0 -0.85 -0.20 -1.35 -0.45 -2.20 -1.20 -5.50 -2.55 -6.15 -2.55 -0.45 0 -0.95 -0.15 -1.15 -0.35 -0.15 -0.20 -0.60 -0.40 -0.95 -0.45 -1.05 -0.15 -5.55 -1.75 -6.10 -2.15 -0.25 -0.25 -0.85 -0.40 -1.25 -0.45 -0.40 0 -3.90 -0.95 -7.75 -2.10 -6.80 -2.05 -9.20 -2.65 -12.65 -3.30 -0.90 -0.20 -1.75 -0.55 -1.90 -0.75 -0.15 -0.25 -1.15 -0.45 -2.20 -0.45 -1.05 0 -2.10 -0.25 -2.25 -0.50 -0.20 -0.30 -0.50 -0.40 -0.70 -0.30 -0.15 0.15 -2.45 -0.20 -5.05 -0.75 -4.35 -0.90 -6.65 -1.30 -13.75 -2.40 -9.30 -1.50 -23.95 -3.05 -28.60 -3.05 -1.45 0 -2.75 -0.20 -2.90 -0.50 -0.20 -0.30 -3.70 -0.50 -8.90 -0.50 -5.20 0 -8.90 -0.20 -9.35 -0.55 -0.85 -0.60 13.90 -0.25 24.25 0.50 23.75 1.85 52.15 7.20 70.50 13.30 5.50 1.85 16.40 5.70 17.50 6.20 0.55 0.30 3.35 1.50 6.25 2.75 15 6.35 28.10 13.10 39.30 20.20 4.75 3 18.05 12.40 18.45 13.10 0.70 1.15 -1.15 0.35 -3.65 -1.50z"/>
  <path d="M372.65 486.50 c0.05 -11.15 0.10 -18.95 0.20 -17.35 0.10 1.55 0.40 2.85 0.65 2.85 0.30 0 0.50 6.25 0.50 16 0 9.55 -0.20 16 -0.45 16 -0.25 0 -0.60 0.60 -0.70 1.40 -0.10 0.75 -0.20 -7.75 -0.20 -18.90z"/>
  <path d="M421.30 489.55 c1.75 -1.65 22.25 -12.45 29.45 -15.55 0.55 -0.25 2.15 -0.95 3.50 -1.55 10.65 -4.65 26.45 -10 39.10 -13.15 4.90 -1.25 9.60 -2.35 10.40 -2.50 16.40 -3.05 32.30 -4.95 50 -6.05 12.70 -0.80 20.10 -0.95 19.55 -0.40 -0.35 0.40 -3.90 0.65 -20.55 1.65 -4.65 0.25 -10.95 0.70 -13.90 0.95 -3 0.25 -5.85 0.35 -6.35 0.20 -0.50 -0.15 -1.05 0 -1.20 0.30 -0.20 0.30 -1.20 0.55 -2.20 0.55 -1 0 -4.65 0.45 -8.10 1 -3.45 0.50 -7.80 1.20 -9.75 1.50 -4.30 0.65 -24.55 5.55 -30.30 7.30 -9.30 2.80 -20.90 7.15 -28.45 10.65 -1.50 0.70 -3.05 1.20 -3.35 1.15 -0.35 -0.10 -0.65 0.05 -0.65 0.30 0 0.55 -4.75 2.75 -6.15 2.85 -0.45 0.05 -1.35 0.55 -2 1.05 -0.60 0.55 -2.20 1.55 -3.50 2.20 -1.30 0.65 -2.50 1.35 -2.65 1.55 -0.10 0.20 -0.65 0.25 -1.20 0.10 -0.65 -0.15 -1 0 -1 0.40 0 0.70 -9.35 5.95 -10.55 5.95 -0.40 0 -0.45 -0.15 -0.15 -0.45z"/>
  <path d="M792.25 476.25 c-6.60 -1.40 -11.90 -4.05 -16.45 -8.30 -4.30 -4 -6.65 -7.10 -8.20 -10.70 l-1.05 -2.50 -12.65 -0.25 c-9.60 -0.20 -12.95 -0.40 -13.90 -0.95 -2.55 -1.45 -7.90 -6.10 -12.75 -11.15 -10 -10.30 -10.50 -10.85 -9.30 -10.55 0.65 0.15 1.25 0.65 1.40 1.05 0.30 0.70 12.55 12.90 15.95 15.85 2.65 2.30 6.10 4.30 7.30 4.20 0.65 -0.05 6.05 -0.05 12.05 -0.05 l10.90 0.10 1.50 1.60 c0.80 0.90 1.45 1.85 1.45 2.15 0 0.30 1.15 2.20 2.50 4.20 1.40 2 2.50 3.85 2.50 4.10 0 0.25 0.20 0.45 0.45 0.45 0.25 0 1.80 1.15 3.40 2.50 1.60 1.40 4.15 3.10 5.65 3.80 1.50 0.65 3.10 1.45 3.60 1.70 3.05 1.70 17.80 2.60 19.90 1.25 0.40 -0.25 1.45 -0.50 2.25 -0.60 2.05 -0.10 6.65 -2.20 10.10 -4.60 5.80 -4 11.10 -10.85 12.15 -15.75 0.25 -1.10 0.80 -3.75 1.25 -5.80 0.60 -2.50 0.75 -4.90 0.60 -7.25 -0.35 -5.10 -2.20 -12.10 -3.65 -14 -0.65 -0.90 -1.20 -1.80 -1.20 -2.05 0 -0.25 -1.20 -1.90 -2.65 -3.70 -2.70 -3.30 -5.95 -6.05 -9.25 -7.85 -1 -0.55 -2.30 -1.20 -2.85 -1.55 -1.25 -0.65 -2.90 -1.30 -3.30 -1.20 -0.15 0 -1.40 -0.30 -2.70 -0.70 -1.55 -0.45 -4.65 -0.70 -8.55 -0.70 -5.35 0 -6.60 0.15 -9.50 1.25 -1.80 0.70 -3.75 1.25 -4.25 1.25 -0.50 0 -1.10 0.30 -1.30 0.65 -0.20 0.30 -1.05 0.95 -1.90 1.35 -3.10 1.55 -6.60 4.55 -9.10 7.85 -2.90 3.85 -5.15 7.70 -5.15 8.85 0 0.45 -0.25 0.80 -0.50 0.80 -0.30 0 -0.50 0.30 -0.45 0.65 0.15 1.25 -0.05 1.90 -0.55 1.60 -0.55 -0.35 -0.15 -2.50 0.80 -4 0.30 -0.55 0.75 -1.55 0.95 -2.25 0.60 -1.95 5.40 -8.15 8.20 -10.55 9.95 -8.60 22.80 -11 35.20 -6.65 12.10 4.20 20.50 14.40 22.40 27.20 2.05 14.25 -3.85 27.05 -16.05 34.80 -6.85 4.35 -17.15 6.20 -25.25 4.45z"/>
  <path d="M372 368 c0 -53.45 0.15 -97.05 0.30 -96.90 0.40 0.40 0.40 193.35 0 193.75 -0.15 0.15 -0.30 -43.40 -0.30 -96.85z"/>
  <path d="M795.90 455.25 c-12.10 -3.30 -14 -18.85 -3.05 -24.95 1.95 -1.10 3 -1.35 6.35 -1.40 2.60 0 4.05 0.15 4.20 0.55 0.10 0.30 0.55 0.55 1.05 0.55 0.45 0 1.65 0.55 2.65 1.25 1.80 1.20 2.50 2.15 4.10 5.60 0.45 0.85 1 1.70 1.30 1.90 0.90 0.55 0.60 6.25 -0.50 8.45 -1 2.10 -3.70 5.30 -4.50 5.30 -0.25 0 -1.05 0.55 -1.85 1.15 -1.30 1.10 -5.20 2.40 -6.75 2.30 -0.35 0 -1.70 -0.35 -3 -0.70z m8.90 -2 c4.20 -2.10 6.65 -5.65 7.05 -10.25 0.45 -4.95 -2.90 -10.30 -7.65 -12.30 -2.20 -0.90 -7.60 -0.90 -9.85 0.05 -4.15 1.70 -7.10 5.75 -7.65 10.35 -0.30 2.50 -0.15 3.20 1.20 6.05 2.25 4.90 6 7.30 11.40 7.35 2.25 0 3.65 -0.30 5.50 -1.25z"/>
  <path d="M192 441 c0 -5.45 0.10 -6.50 0.75 -6.50 0.65 0 0.75 1.05 0.75 6.50 0 5.45 -0.10 6.50 -0.75 6.50 -0.65 0 -0.75 -1.05 -0.75 -6.50z"/>
  <path d="M464 437.45 c-3.20 -0.80 -6.20 -3.05 -7.45 -5.60 -1.25 -2.55 -1.40 -7.05 -0.35 -9.50 1.10 -2.70 4.05 -5.15 6.95 -5.75 1.75 -0.40 14.80 -0.60 38.85 -0.75 19.95 -0.10 35.65 -0.05 34.90 0.05 -0.80 0.10 -1.40 0.35 -1.40 0.60 0 0.20 -15.80 0.45 -35.10 0.45 -22.65 0.05 -35.85 0.25 -37.10 0.60 -4.50 1.20 -6.35 3.85 -6.50 9.20 -0.05 3.10 0.15 3.85 1.30 5.60 1.60 2.45 3.75 3.65 7.15 4 5.35 0.60 16.95 0.70 19.35 0.15 1.50 -0.30 2.75 -0.35 3.10 -0.05 0.75 0.60 13.30 0.75 13.30 0.15 0 -0.30 3.15 -0.50 7.40 -0.55 28.45 -0.25 44.55 -0.65 46.10 -1.15 0.95 -0.30 2.45 -1 3.25 -1.60 3.20 -2.25 15.55 -12.90 32 -27.55 8.55 -7.60 10.75 -9.50 12.15 -10.10 1 -0.45 10.95 -0.60 39.90 -0.65 21.20 0 38.70 0.15 38.90 0.40 0.20 0.20 0.60 0.35 0.80 0.35 0.45 0 22.55 21.70 25.70 25.20 0.85 0.95 2.75 2.95 4.20 4.40 1.40 1.50 2.60 2.80 2.60 3 0 0.50 -11.45 -10.50 -22.50 -21.55 l-10.75 -10.80 -39.10 0 -39.05 0 -1.70 1.40 c-0.90 0.75 -4.05 3.50 -6.95 6.10 -2.95 2.60 -7.45 6.60 -10 8.85 -2.60 2.25 -7.75 6.75 -11.45 10 -12.25 10.65 -14 12 -17.40 13.55 -1.55 0.70 -4.55 0.90 -18.85 1.20 -36.50 0.70 -69.95 0.85 -72.25 0.35z"/>
  <path d="M747.45 433.10 c-0.70 -0.50 -2.45 -2.20 -3.95 -3.85 -7.60 -8.35 -51.05 -50.65 -53.90 -52.50 l-2.30 -1.50 -45.30 -0.15 -45.25 -0.10 -2.15 1.10 c-1.80 0.90 -6.80 4.90 -11.30 9 -0.55 0.50 -1.30 0.90 -1.65 0.90 -0.40 0 -0.60 0.20 -0.45 0.45 0.15 0.20 -0.30 0.65 -0.95 0.95 -0.70 0.35 -1.25 0.90 -1.25 1.35 0 0.40 -0.30 0.75 -0.65 0.75 -0.60 0 -3.90 2.90 -12.10 10.65 -1.95 1.85 -3.75 3.35 -3.95 3.35 -0.35 0 -4.10 3.40 -7.05 6.40 -0.60 0.60 -1.35 1.10 -1.65 1.10 -0.30 0 -0.85 0.40 -1.20 0.90 -1.60 2.15 -4.60 3.80 -6.75 3.75 -1.20 0 -2.15 0.20 -2.15 0.40 0 0.25 -0.55 0.20 -1.25 -0.05 -0.70 -0.25 -1.25 -0.30 -1.25 -0.05 0 0.55 -1.90 0.10 -2.30 -0.50 -0.15 -0.25 1.70 -0.45 4.25 -0.40 3.20 0.05 4.80 -0.10 5.45 -0.60 1 -0.70 26.85 -23.45 31.30 -27.50 6 -5.45 12.70 -11 14.30 -11.80 1.65 -0.85 4.75 -0.90 45.25 -1.05 23.95 -0.10 44.70 0 46.10 0.15 1.90 0.25 3.45 0.85 5.50 2.30 1.60 1.05 15.30 14.20 30.40 29.20 l27.50 27.25 8.15 0 c5.10 0 8.05 0.20 7.85 0.50 -0.15 0.25 -3.65 0.45 -8.20 0.45 -6.50 -0.05 -8.15 -0.20 -9.10 -0.85z"/>
  <path d="M192 428.25 c0 -3 0.15 -3.75 0.75 -3.75 0.60 0 0.75 0.75 0.75 3.75 0 3 -0.15 3.75 -0.75 3.75 -0.60 0 -0.75 -0.75 -0.75 -3.75z"/>
  <path d="M715.25 430 c-0.50 -0.55 -0.65 -1 -0.35 -1 0.30 0 0.80 0.45 1.10 1 0.30 0.55 0.45 1 0.35 1 -0.10 0 -0.60 -0.45 -1.10 -1z"/>
  <path d="M170.05 301.35 c-0.05 -95 0.10 -129.70 0.50 -130.50 1.75 -3.45 4.25 -4.80 9.65 -5.35 6.50 -0.65 31.50 0.60 45.30 2.30 6.90 0.85 23.45 3.95 30.55 5.75 14.70 3.70 31.25 9.25 41.95 14.05 1.80 0.80 4.85 2.15 6.75 3.05 1.95 0.85 3.85 1.80 4.25 2.10 0.40 0.30 2.80 1.60 5.25 2.85 4.60 2.35 16 8.85 18.25 10.45 1.10 0.75 4.20 2.75 6.60 4.20 7.75 4.70 23.30 17.10 31.55 25.20 5.10 5 12.35 13.05 12.35 13.75 0 1 -1.35 -0.20 -4.90 -4.30 -5 -5.90 -9.55 -10.45 -15.60 -15.60 -4.90 -4.20 -10.80 -8.95 -13 -10.45 -0.70 -0.45 -2.50 -1.75 -4 -2.85 -1.50 -1.10 -4 -2.80 -5.50 -3.80 -1.50 -1 -3.65 -2.45 -4.75 -3.20 -1.70 -1.10 -9.10 -5.65 -12.90 -7.90 -0.95 -0.55 -6 -3.20 -18.10 -9.45 -5.40 -2.80 -10.70 -5.15 -14.65 -6.45 -2.10 -0.70 -4.05 -1.50 -4.30 -1.75 -0.30 -0.25 -0.95 -0.45 -1.55 -0.45 -0.55 0 -1.60 -0.40 -2.25 -0.85 -0.70 -0.50 -1.30 -0.85 -1.35 -0.75 -0.10 0.05 -0.20 0.10 -0.25 0.05 -0.10 0 -0.50 -0.10 -0.90 -0.20 -1 -0.20 -10.50 -3.25 -11.75 -3.75 -0.95 -0.35 -6.55 -1.80 -9.25 -2.35 -0.70 -0.10 -1.60 -0.35 -2 -0.50 -0.40 -0.15 -1.10 -0.35 -1.50 -0.40 -2.75 -0.30 -9.50 -2 -9.50 -2.35 0 -0.20 -0.55 -0.30 -1.25 -0.10 -0.70 0.15 -1.55 0.10 -1.90 -0.20 -0.30 -0.25 -1.70 -0.60 -3.10 -0.75 -1.35 -0.15 -3.95 -0.50 -5.75 -0.80 -7.05 -1.15 -14.40 -2.05 -17.10 -2.05 -1.55 0 -2.95 -0.20 -3.10 -0.45 -0.15 -0.25 -5.40 -0.45 -11.65 -0.50 -7.20 -0.05 -11.60 -0.30 -12 -0.65 -0.80 -0.65 -7.70 -0.65 -8.10 0 -0.15 0.25 -1.75 0.60 -3.55 0.75 -2.75 0.25 -3.40 0.50 -4.40 1.70 -0.60 0.75 -1.25 1.90 -1.40 2.55 -0.20 0.60 -0.45 1.10 -0.65 1.10 -0.15 0 -0.25 54.40 -0.20 120.85 0.10 66.50 -0.05 124.60 -0.30 129.15 -0.25 4.90 -0.45 -44.25 -0.50 -121.15z"/>
  <path d="M192 423.25 c0 -0.40 0.35 -0.75 0.75 -0.75 0.40 0 0.75 0.35 0.75 0.75 0 0.40 -0.35 0.75 -0.75 0.75 -0.40 0 -0.75 -0.35 -0.75 -0.75z"/>
  <path d="M192 416.50 c0 -1.20 0.20 -1.50 1.05 -1.50 0.75 0 0.95 0.20 0.75 0.80 -0.15 0.45 -0.30 1.10 -0.30 1.50 0 0.40 -0.35 0.70 -0.75 0.70 -0.50 0 -0.75 -0.50 -0.75 -1.50z"/>
  <path d="M875.25 389.30 c-11.35 -2.35 -20.70 -9.95 -25.25 -20.45 l-1.25 -2.85 -47.25 0 c-49.05 0 -53.75 -0.15 -57.80 -2.05 -1.45 -0.70 -5.15 -4.05 -11.05 -10.05 -13.25 -13.40 -34.80 -33.60 -37 -34.70 -1.80 -0.90 -3.75 -0.95 -47.55 -1.10 l-45.65 -0.10 -2.60 1.70 c-3 2 -8.05 6.35 -21.85 18.75 -5.35 4.80 -11.90 10.65 -14.50 13 -2.60 2.30 -5.20 4.70 -5.75 5.25 -0.55 0.60 -1.50 1.40 -2.10 1.85 -0.55 0.40 -2.60 2.10 -4.50 3.80 -5.65 5.10 -8.30 7.15 -10.90 8.55 l-2.50 1.30 -36.55 -0.10 c-39.95 -0.10 -39.30 -0.05 -42.35 -3 -2.25 -2.15 -3 -4 -3.05 -7.65 0 -4.45 1.75 -7.55 5.45 -9.40 l2.50 -1.30 34 0 34.05 0 9.45 -8.50 c5.20 -4.65 12.85 -11.55 17 -15.25 6.90 -6.15 11.50 -10.35 24.05 -21.85 5.60 -5.10 8.20 -7 10.80 -7.95 2.60 -0.90 3.45 -0.90 3.10 0.05 -0.20 0.40 -0.85 0.75 -1.50 0.75 -1.30 0 -4.40 1.55 -6 3.05 -0.55 0.50 -1.25 0.95 -1.55 0.95 -0.35 0 -1 0.50 -1.50 1.15 -0.50 0.65 -1.30 1.30 -1.75 1.50 -0.50 0.15 -0.90 0.65 -0.90 1.05 0 0.40 -0.30 0.95 -0.70 1.15 -0.35 0.20 -2.30 1.85 -4.30 3.65 -2 1.80 -4.20 3.70 -4.90 4.25 -0.65 0.55 -2.30 2 -3.55 3.25 -1.30 1.25 -4.15 3.85 -6.35 5.85 -2.15 1.95 -4.55 4.15 -5.25 4.85 -0.75 0.70 -1.50 1.30 -1.65 1.30 -0.40 0 -2 1.50 -9.20 8.35 -2.95 2.85 -5.50 5.15 -5.70 5.15 -0.20 0 -1.50 1.15 -2.90 2.50 -1.45 1.40 -3.25 2.85 -4 3.25 -0.80 0.40 -1.65 1.15 -1.95 1.60 -0.45 0.80 -1.65 0.90 -12.35 1.05 -8.50 0.10 -12.05 -0.05 -12.55 -0.45 -0.50 -0.45 -0.85 -0.45 -1.25 -0.05 -0.70 0.70 -4.20 0.80 -4.60 0.15 -0.35 -0.55 -35.50 -0.70 -36.65 -0.15 -0.50 0.25 -1.95 0.95 -3.25 1.55 -3.40 1.65 -5.10 4.40 -5.10 8.30 0.05 3.75 1.40 6.65 3.80 7.90 0.95 0.50 2.05 0.95 2.45 1 0.40 0.10 1.05 0.35 1.45 0.60 0.45 0.25 15.25 0.45 36.80 0.40 l36.10 -0.05 2.10 -1.20 c3.55 -1.90 3.95 -2.20 5.60 -3.70 0.90 -0.80 2.10 -1.80 2.70 -2.20 0.60 -0.40 3.55 -3 6.50 -5.80 3 -2.75 9.10 -8.25 13.60 -12.20 4.45 -4 8.10 -7.40 8.10 -7.60 0 -0.65 1.95 -2.40 2.65 -2.40 0.35 0 2.50 -1.80 4.75 -4 2.25 -2.20 4.25 -4 4.40 -4 0.15 0 2.55 -1.95 5.35 -4.40 2.80 -2.40 6.05 -4.85 7.15 -5.50 l2.10 -1.10 45.50 0 45.50 0 3.05 1.65 c1.95 1.05 5.70 4.15 10.65 8.85 13.35 12.70 29.40 28.70 29.40 29.35 0 0.35 0.25 0.65 0.55 0.65 0.30 0 1.90 1.25 3.55 2.75 1.60 1.50 3.40 2.75 3.90 2.75 0.50 0 1.05 0.20 1.20 0.45 0.15 0.20 3.70 0.45 7.90 0.50 4.20 0.05 9.55 0.30 11.90 0.50 2.35 0.25 22 0.45 43.70 0.50 21.65 0.05 39.60 0.20 39.85 0.35 0.25 0.15 0.45 0.70 0.45 1.25 0 0.50 0.20 0.95 0.50 0.95 0.25 0 1.15 1.35 1.95 3 1.90 3.85 3.65 6.20 6.60 9 2.85 2.70 8.50 6.15 11.80 7.25 3.60 1.15 10.60 2.05 13.15 1.65 1.25 -0.20 4 -0.60 6.15 -0.90 5.70 -0.85 10.85 -3.55 15.80 -8.45 2.15 -2.10 4.50 -4.85 5.25 -6.15 1.75 -3 3.40 -7.45 3.05 -8.25 -0.10 -0.35 0 -0.65 0.30 -0.65 0.30 0 0.45 -0.30 0.30 -0.70 -0.15 -0.40 -0.05 -0.80 0.25 -0.90 0.35 -0.15 0.55 -2.65 0.60 -7.15 0.05 -6.10 -0.10 -7.45 -1.10 -10.45 -3.40 -10.10 -8.80 -16.20 -17.85 -20.15 -4.80 -2.15 -5.20 -2.25 -7.70 -2.50 -1.20 -0.15 -3.10 -0.40 -4.25 -0.60 -3.05 -0.50 -9.35 0.30 -13.45 1.75 -1.95 0.70 -4.35 1.50 -5.20 1.75 -0.90 0.25 -1.85 0.95 -2.15 1.45 -0.30 0.55 -0.85 1 -1.25 1 -0.85 0 -6.55 5.85 -7.95 8.15 -0.50 0.90 -1.50 2.50 -2.25 3.60 -0.70 1.10 -1.25 2.15 -1.20 2.35 0.10 0.15 -0.20 0.45 -0.60 0.60 -1.05 0.40 0.20 -2.55 2.80 -6.55 5.60 -8.60 14.90 -14.10 25.50 -15.10 12.60 -1.20 25.30 4.50 32 14.35 4.80 7.05 7.30 17.35 5.95 24.70 -1.55 8.80 -4.35 14.30 -10.20 20.20 -3.40 3.40 -4.85 4.40 -9.05 6.45 -7.30 3.55 -14.65 4.55 -22 3.05z"/>
  <path d="M879 368.15 c-3.65 -0.55 -8.15 -4.30 -9.85 -8.15 -1 -2.30 -0.65 -9.65 0.55 -10.95 0.45 -0.50 0.80 -1.10 0.80 -1.40 0 -0.85 4.05 -4.55 5.70 -5.15 0.85 -0.30 1.90 -0.75 2.30 -1 1.10 -0.55 5.15 -0.15 8.10 0.85 2.85 0.90 7.55 5.15 7.10 6.40 -0.20 0.40 0 0.85 0.35 1 0.45 0.15 0.70 1.15 0.75 2.65 0.10 2.55 -0.35 2 -1.25 -1.65 -0.70 -2.75 -3.05 -5.40 -5.90 -6.75 -2.85 -1.35 -8.40 -1.50 -11.15 -0.35 -2.25 1 -5.25 4.10 -6.25 6.45 -0.95 2.40 -0.95 7.40 0.05 9.80 3.80 9.20 17.85 9.95 22.30 1.10 0.80 -1.50 1.40 -3.05 1.40 -3.50 0 -0.40 0.20 -1.05 0.40 -1.40 0.25 -0.40 0.40 0.05 0.40 1.15 -0.05 0.95 -0.25 1.75 -0.45 1.75 -0.25 0 -0.30 0.40 -0.10 0.95 0.15 0.60 -0.20 1.40 -1.10 2.35 -2.60 2.75 -6 5.20 -7.45 5.40 -2.90 0.50 -5.45 0.65 -6.70 0.45z"/>
  <path d="M193.50 360.10 c0 -0.35 -0.35 -0.60 -0.75 -0.60 -0.60 0 -0.75 -0.70 -0.75 -3.50 0 -2.65 0.15 -3.50 0.70 -3.50 0.50 0 0.75 1.05 0.95 3.90 0.10 2.10 0.15 3.95 0.05 4.05 -0.10 0.10 -0.20 -0.05 -0.20 -0.35z"/>
  <path d="M752.75 344.50 c-0.55 -0.20 -10.55 -9.90 -22.25 -21.50 -19.35 -19.20 -24.50 -24 -25.90 -24 -0.25 0 -0.75 -0.30 -1.10 -0.70 -0.30 -0.40 -0.85 -0.65 -1.15 -0.50 -0.35 0.10 -1.85 -0.25 -3.35 -0.80 -1.70 -0.60 -2.30 -0.95 -1.55 -1 2.15 0 7.30 1.55 9.30 2.85 2 1.30 16.75 15.60 36.10 35 l10.10 10.15 48.05 0 c31.90 0 47.95 0.15 47.75 0.50 -0.40 0.60 -94.50 0.65 -96 0z"/>
  <path d="M464.25 307.65 c-2.35 -0.60 -5.10 -2.20 -6.55 -3.75 -4.55 -4.85 -2.95 -13.40 3.05 -16.40 l2.50 -1.25 27.45 -0.15 27.45 -0.10 7.30 -6.90 c4 -3.75 10.35 -9.65 14.05 -13.10 3.70 -3.45 10.90 -10.20 16 -15 10.15 -9.55 13.55 -12.75 17.15 -16 l2.35 -2.15 0 -21.70 c0 -14.70 0.15 -21.60 0.50 -21.40 0.35 0.20 0.50 7.55 0.45 21.60 l-0.05 21.30 -5.20 5.15 c-2.85 2.85 -5.40 5.20 -5.60 5.20 -0.20 0 -1.15 0.85 -2.10 1.85 -4.10 4.35 -8.35 8.30 -9.40 8.70 -0.60 0.25 -1.05 0.70 -1 1.05 0.10 0.35 -0.35 0.85 -0.95 1.15 -0.65 0.25 -1.15 0.70 -1.15 0.95 0 0.25 -1.40 1.70 -3.10 3.25 -1.75 1.55 -3.60 3.25 -4.20 3.85 -0.60 0.60 -1.45 1.20 -1.90 1.35 -0.45 0.20 -1.05 0.90 -1.40 1.60 -0.30 0.70 -0.80 1.25 -1.05 1.25 -0.25 0 -1.55 1.15 -2.85 2.50 -1.30 1.40 -2.50 2.50 -2.70 2.50 -0.15 0 -1.60 1.35 -3.15 3 -1.60 1.65 -3.15 3 -3.45 3 -0.30 0 -1 0.50 -1.55 1.15 -0.55 0.60 -2.40 2.40 -4.05 4 l-3.05 2.85 -27.05 0 c-26.05 0 -27.15 0.05 -29.10 1 -1.15 0.55 -2.40 1 -2.75 1 -0.35 0 -0.65 0.25 -0.65 0.55 0 0.65 -2.05 5.05 -2.55 5.45 -0.45 0.35 -0.35 3.50 0.10 3.50 0.25 0 0.55 0.80 0.75 1.75 0.40 2.20 3.55 4.95 6.70 5.80 1.25 0.35 3.95 0.60 6 0.55 2.05 -0.10 15.15 -0.20 29.05 -0.30 21.50 -0.20 25.55 -0.35 26.80 -1 4.50 -2.30 21.65 -17.15 20.80 -18 -0.20 -0.15 0.10 -0.30 0.60 -0.30 0.50 0 1.85 -0.95 3.05 -2.10 1.20 -1.20 3.20 -3.05 4.50 -4.15 1.25 -1.05 3.25 -2.85 4.35 -3.90 1.15 -1.05 2.85 -2.60 3.85 -3.45 3.50 -3.05 12.70 -11.70 13.95 -13.10 0.70 -0.80 1.60 -1.70 2 -2 0.35 -0.30 1.70 -1.55 3 -2.80 1.30 -1.25 4.25 -3.95 6.60 -6.05 2.30 -2.10 4.80 -4.30 5.55 -5 l1.35 -1.20 103.15 -0.05 103.20 -0.05 3.55 3.35 c2.85 2.65 4.45 3.75 8.20 5.35 2.60 1.15 5.90 2.30 7.35 2.60 3.75 0.80 12.05 0.70 15.35 -0.20 3.55 -0.90 11.25 -4.60 11.25 -5.40 0 -0.35 0.95 -1.05 2.10 -1.60 2.35 -1.15 6.70 -6.10 8.60 -9.75 2.10 -4 3.40 -8.50 3.45 -11.80 0.05 -1.75 0.25 -3.20 0.50 -3.20 1.10 0 -0.50 -9.45 -2.35 -14.05 -1.70 -4.25 -4.20 -8.20 -6.80 -10.80 -2.50 -2.50 -8.05 -6.65 -8.95 -6.65 -0.30 0 -0.95 -0.20 -1.45 -0.45 -3.20 -1.65 -6.40 -2.55 -8.90 -2.55 -1.20 0 -2.30 -0.25 -2.45 -0.50 -0.45 -0.70 -6.25 -0.65 -6.25 0.05 0 0.40 -0.70 0.50 -1.95 0.30 -1.20 -0.15 -2.50 0.05 -3.30 0.45 -0.75 0.40 -1.55 0.55 -1.85 0.40 -0.25 -0.15 -0.85 0 -1.30 0.40 -1.20 0.95 -3.90 2.40 -4.55 2.40 -0.25 0 -1.10 0.55 -1.85 1.25 -0.75 0.70 -1.60 1.25 -1.90 1.25 -0.55 0 -4.35 3.50 -5.90 5.35 -3.55 4.50 -6.15 10.70 -7.40 17.90 -0.75 4.25 -1.45 5.80 -1.50 3.25 0 -2.25 1.15 -8.10 2.25 -11.15 4.80 -13.80 17.80 -22.85 32.70 -22.85 10.40 0.05 18.60 3.50 25.60 10.80 16.75 17.45 10.10 47.15 -12.55 56.35 -4.40 1.80 -8.15 2.45 -14 2.45 -5.15 0.05 -6.20 -0.10 -10.20 -1.50 -5.45 -1.90 -9.05 -4 -12.85 -7.50 l-2.85 -2.65 -103.15 0 -103.10 0 -4.30 4.15 c-4.35 4.25 -18.15 17.25 -22.80 21.45 -1.35 1.25 -4.20 3.85 -6.30 5.75 -2.05 1.90 -6.65 6.05 -10.20 9.20 -3.55 3.15 -7.80 7 -9.50 8.50 -10.90 10 -14.80 12.85 -18.35 13.45 -2.85 0.50 -57.50 1.15 -59.15 0.70z"/>
  <path d="M608.50 297.25 c0 -0.50 0.50 -0.75 1.45 -0.75 0.80 0 1.80 -0.15 2.20 -0.30 0.60 -0.20 0.70 0 0.50 0.75 -0.20 0.85 -0.65 1.05 -2.20 1.05 -1.40 0 -1.95 -0.20 -1.95 -0.75z"/>
  <path d="M614 297.25 c-0.55 -0.65 -0.15 -0.75 3.15 -0.75 3.20 0 3.75 0.10 3.55 0.75 -0.35 0.85 -1 1 -1.45 0.25 -0.15 -0.25 -0.75 -0.50 -1.30 -0.50 -0.50 0 -0.95 0.25 -0.95 0.50 0 0.80 -2.30 0.60 -3 -0.25z"/>
  <path d="M632 296.90 c0 -0.20 0.70 -0.40 1.50 -0.40 0.85 0 1.50 0.10 1.50 0.20 0 0.10 -0.65 0.30 -1.50 0.40 -0.80 0.15 -1.50 0.05 -1.50 -0.20z"/>
  <path d="M599.60 296.75 c0.45 -0.45 4.40 -0.65 4.10 -0.20 -0.15 0.25 -1.20 0.45 -2.30 0.45 -1.15 0 -1.95 -0.10 -1.80 -0.25z"/>
  <path d="M650.90 296.15 c0.90 -0.10 2.25 -0.10 3 0 0.75 0.10 0 0.20 -1.65 0.20 -1.65 0 -2.25 -0.10 -1.35 -0.20z"/>
  <path d="M660.90 296.15 c2.30 -0.10 5.90 -0.10 8 0 2.10 0.05 0.25 0.15 -4.15 0.15 -4.40 0 -6.15 -0.10 -3.85 -0.15z"/>
  <path d="M678.65 296.15 c3.25 -0.10 8.40 -0.10 11.50 0 3.10 0.05 0.45 0.15 -5.90 0.15 -6.30 0 -8.85 -0.10 -5.60 -0.15z"/>
  <path d="M362.50 258.85 c-11.10 -11 -15.25 -14.70 -22.50 -19.90 -5.60 -4.10 -5.35 -3.90 -12 -8.20 -2.60 -1.70 -6.05 -3.90 -7.60 -4.90 -1.55 -1 -3 -1.85 -3.20 -1.85 -0.20 0 -1.70 -0.85 -3.40 -1.90 -12 -7.50 -39.60 -19 -56.65 -23.65 -7.55 -2 -11.40 -3 -13.90 -3.45 -1.35 -0.30 -3.60 -0.75 -5 -1.05 -2.60 -0.55 -3.75 -0.75 -14.25 -2.40 -8.90 -1.40 -20.35 -2.55 -25.70 -2.55 l-4.55 0 0.15 27 c0.10 24 0.05 27 -0.65 27 -0.85 0 -0.85 0.75 -0.80 -33 0 -19.85 0.05 -21.30 0.90 -21.85 1.60 -1.10 21.45 0.55 34.65 2.80 7.20 1.25 16.70 3.10 19.55 3.85 1.75 0.45 4.35 1.05 5.70 1.30 1.40 0.30 3.10 0.80 3.85 1.20 0.70 0.40 1.65 0.70 2.10 0.70 0.40 0 4.55 1.25 9.15 2.80 4.60 1.50 8.75 2.85 9.20 2.95 0.40 0.10 1.75 0.60 3 1.15 2.30 1.05 5.55 2.30 5.95 2.35 0.50 0.10 7.30 3.40 17.25 8.30 10.55 5.30 10.55 5.25 14.60 7.80 1.40 0.90 2.70 1.65 2.80 1.65 0.35 0 12.35 7.95 16.80 11.10 5.50 3.95 11.55 8.85 11.55 9.40 0 0.30 0.35 0.50 0.75 0.50 0.40 0 4.80 4 9.85 8.90 5 4.85 9.85 9.55 10.75 10.45 0.90 0.85 1.65 1.90 1.65 2.35 0 0.45 -0.05 0.80 -0.10 0.80 -0.10 0 -4.55 -4.35 -9.90 -9.65z"/>
  <path d="M192.50 252.75 c0 -1.20 0.25 -1.75 0.75 -1.75 0.50 0 0.75 0.55 0.75 1.75 0 1.20 -0.25 1.75 -0.75 1.75 -0.50 0 -0.75 -0.55 -0.75 -1.75z"/>
  <path d="M192.50 247.25 c0 -2.55 0.15 -3.25 0.75 -3.25 0.60 0 0.75 0.70 0.75 3.25 0 2.55 -0.15 3.25 -0.75 3.25 -0.60 0 -0.75 -0.70 -0.75 -3.25z"/>
  <path d="M385.45 247.65 c2.60 -3.25 16.10 -16.75 21.15 -21.20 5.85 -5.20 16.40 -13.20 25.15 -19 10.80 -7.20 21.75 -13.20 35.25 -19.30 24.25 -11 57.15 -19.25 85.75 -21.65 10.45 -0.85 11.50 -0.90 24.80 -1 13.15 -0.10 14.65 0.10 17.40 2.65 2.75 2.55 2.75 2.55 2.80 28.85 0 23.25 -0.05 24.25 -0.90 23.50 -0.80 -0.70 -0.90 -2 -0.80 -18.25 0.05 -9.60 0.30 -20.05 0.60 -23.15 0.30 -3.40 0.30 -5.85 0.05 -6 -0.25 -0.20 -0.50 -0.80 -0.60 -1.35 -0.20 -1.40 -4 -4.75 -5.40 -4.75 -0.60 0 -1.30 -0.20 -1.45 -0.50 -0.40 -0.65 -6.25 -0.65 -6.25 0 0 0.65 -2.35 0.65 -2.75 0 -0.40 -0.65 -3.75 -0.65 -3.75 0 0 0.70 -1.30 0.65 -2.50 -0.10 -0.80 -0.50 -1.10 -0.50 -1.40 -0.05 -0.25 0.40 -3.35 0.60 -10.35 0.70 -5.50 0.05 -10.20 0.25 -10.50 0.45 -0.25 0.20 -2.20 0.50 -4.25 0.65 -5.95 0.50 -12.40 1.30 -16.35 2.15 -1.95 0.40 -4.45 0.75 -5.50 0.80 -1.05 0 -2.10 0.20 -2.40 0.40 -0.55 0.40 -2.65 0.90 -9.75 2.50 -7.65 1.70 -12.30 2.95 -20 5.40 -4 1.30 -7.60 2.35 -8.05 2.35 -0.45 0 -1.10 0.25 -1.50 0.60 -0.40 0.30 -1.40 0.70 -2.20 0.90 -0.85 0.20 -2.40 0.75 -3.50 1.25 -1.10 0.50 -3.90 1.70 -6.25 2.70 -2.35 1.05 -6.05 2.70 -8.20 3.70 -2.15 1 -4.15 1.80 -4.45 1.70 -0.25 -0.10 -0.85 0.20 -1.30 0.60 -1.20 1.05 -6.45 3.80 -7.30 3.80 -0.45 0 -1.15 0.45 -1.60 1 -0.50 0.55 -1.60 1.15 -2.50 1.30 -0.90 0.15 -1.55 0.55 -1.50 0.90 0.05 0.30 -0.20 0.50 -0.55 0.40 -0.35 -0.05 -1.15 0.35 -1.75 0.95 -0.60 0.60 -2 1.50 -3.10 2.05 -3.50 1.70 -4.75 2.45 -4.75 2.95 0 0.25 -0.45 0.45 -1 0.45 -0.55 0 -1 0.25 -1 0.50 0 0.30 -0.45 0.50 -1.05 0.50 -0.55 0 -0.85 0.25 -0.70 0.50 0.15 0.30 -0.10 0.65 -0.60 0.85 -0.50 0.20 -1.90 1.05 -3.05 1.90 -1.20 0.80 -2.65 1.75 -3.20 2.10 -0.55 0.30 -1.15 0.80 -1.35 1.05 -0.40 0.60 -7 5.80 -10.30 8.05 -1.40 0.95 -4.85 3.95 -7.65 6.65 -2.85 2.70 -5.40 4.90 -5.65 4.90 -0.25 0 -0.45 0.30 -0.45 0.65 -0.05 0.30 -0.75 1.05 -1.65 1.60 -0.85 0.55 -1.80 1.45 -2.10 2 -0.50 1.05 -1.70 2.30 -5.85 6.05 -1.25 1.15 -2.75 2.80 -3.35 3.65 -0.60 0.85 -1.35 1.55 -1.65 1.55 -0.25 0 0.20 -0.85 1.05 -1.85z"/>
  <path d="M825.05 234.40 c-4.15 -0.90 -7.90 -4 -9.65 -7.90 -1.95 -4.15 -0.90 -10.70 2.25 -14.50 1.45 -1.80 5.10 -3.70 8 -4.25 2.70 -0.50 3.45 -0.45 5.80 0.35 1.45 0.45 3.35 1.30 4.25 1.85 1.75 1.10 4.10 4 3.90 4.85 -0.05 0.35 0.20 0.70 0.55 0.85 0.70 0.25 1 2.85 0.90 7.80 -0.05 2.60 -2 6.30 -3.60 6.70 -0.55 0.15 -0.90 0.50 -0.70 0.80 0.15 0.30 0 0.55 -0.35 0.55 -0.40 0 -1.05 0.45 -1.50 0.95 -0.85 1 -5.35 2.60 -6.85 2.50 -0.45 -0.05 -1.80 -0.30 -3 -0.55z m7.95 -1.95 c4.50 -2.05 6.75 -5.30 7.30 -10.65 0.25 -2.60 0.15 -3.50 -0.50 -4.50 -0.45 -0.70 -0.80 -1.55 -0.80 -1.90 0 -1.25 -2.85 -4.15 -5.20 -5.30 -3.10 -1.55 -8.75 -1.65 -11.60 -0.20 -2.40 1.25 -4.30 3.25 -5.50 5.85 -1.25 2.60 -1.30 8.30 -0.10 10.75 1.10 2.25 4.15 5.25 6.40 6.20 2.55 1.10 7.30 1 10 -0.25z"/>
  <path d="M624.30 223.25 c-0.55 -0.40 -0.80 -0.75 -0.50 -0.75 2.25 -0.10 29.40 0.20 30.95 0.30 1.10 0.05 3.70 0.15 5.75 0.15 2.60 0.05 3.55 0.20 3.15 0.60 -0.50 0.50 -3.20 0.45 -17.10 -0.35 -4 -0.20 -5.30 -0.10 -5.60 0.40 -0.35 0.50 -0.55 0.50 -1.05 0 -0.75 -0.75 -13.90 -0.85 -13.90 -0.10 0 0.70 -0.55 0.60 -1.70 -0.25z"/>
  <path d="M680.50 223.45 c-3.15 -0.20 -2.75 -0.25 2.50 -0.30 3.45 0 5.90 0.05 5.50 0.15 -1.80 0.35 -4.50 0.45 -8 0.15z"/>
  <path d="M689.70 223.40 c-0.15 -0.20 1.50 -0.40 3.65 -0.35 4.45 0.05 4.35 0.30 -0.25 0.55 -1.75 0.15 -3.25 0.05 -3.40 -0.20z"/>
  <path d="M705.25 223.50 c-0.90 -0.40 -0.85 -0.45 0.40 -0.45 0.80 -0.05 1.30 0.15 1.10 0.45 -0.15 0.30 -0.35 0.50 -0.40 0.45 -0.05 0 -0.55 -0.20 -1.10 -0.45z"/>
  <path d="M743.75 223.50 c-0.20 -0.30 -3.30 -0.50 -7.60 -0.50 -4.05 0 -7.20 -0.10 -7.10 -0.20 0.10 -0.10 14.30 -0.30 31.60 -0.50 23.25 -0.25 31.35 -0.20 31.35 0.20 0 0.45 -3.25 0.55 -11.85 0.40 -9.15 -0.10 -11.85 0 -12 0.50 -0.15 0.30 -0.80 0.60 -1.45 0.60 -0.65 0 -1.20 -0.30 -1.20 -0.60 0 -0.50 -0.15 -0.45 -0.45 0.05 -0.30 0.40 -0.70 0.50 -1.10 0.25 -1 -0.60 -1.95 -0.70 -1.95 -0.15 0 0.70 -11.70 0.55 -12.45 -0.15 -0.55 -0.50 -0.70 -0.50 -0.90 0 -0.30 0.70 -4.45 0.85 -4.90 0.10z"/>
  <path d="M605.90 223.20 c-0.20 -0.15 -2.20 -0.40 -4.45 -0.50 -7.40 -0.40 -4.85 -0.70 6.05 -0.70 5.85 0 10.55 0.10 10.45 0.20 -0.15 0.15 -2.70 0.30 -5.70 0.35 -3.05 0.05 -5.65 0.25 -5.80 0.50 -0.15 0.25 -0.40 0.35 -0.55 0.15z"/>
  <path d="M668.65 223.15 c0.45 -0.10 1.25 -0.10 1.75 0 0.45 0.15 0.05 0.25 -0.90 0.25 -0.95 0 -1.35 -0.10 -0.85 -0.25z"/>
  <path d="M698.40 223.15 c0.60 -0.10 1.50 -0.10 2 0 0.45 0.15 -0.05 0.25 -1.15 0.20 -1.10 0 -1.50 -0.10 -0.85 -0.20z"/>
  <path d="M720.65 222.65 c0.45 -0.10 1.25 -0.10 1.75 0 0.45 0.15 0.05 0.25 -0.90 0.25 -0.95 0 -1.35 -0.10 -0.85 -0.25z"/>
 </g>
</svg>